<svg xmlns="http://www.w3.org/2000/svg" width="300" height="371" fill="none"><g clip-path="url(#a)"><path fill="url(#b)" d="M174.5 281.57v22.94h3.27v3.65h3.64v-3.65h15.82v3.65h3.64v-3.65h3.62v-22.94h-30 .01Zm3.64 3.64h22.72v6.01h-22.72v-6.01Zm0 9.65h22.72v6.01h-22.72v-6.01Z"/><path fill="url(#c)" d="M184.94 286.39h-3.64v3.64h3.64v-3.64Z"/><path fill="url(#d)" d="M191.98 286.39h-3.64v3.64h3.64v-3.64Z"/><path fill="url(#e)" d="M184.94 296.06h-3.64v3.64h3.64v-3.64Z"/><path fill="url(#f)" d="M191.98 296.06h-3.64v3.64h3.64v-3.64Z"/><path fill="url(#g)" d="M196.93 270.92v-8.38h-3.73v8.38l-2.24-2.25v3.49l4.11 4.1 4.1-4.1v-3.49l-2.24 2.25Z"/><path fill="url(#h)" d="M180.91 266.64v3.49l2.25-2.25v8.38h3.72v-8.38l2.24 2.25v-3.49l-4.1-4.1-4.11 4.1Z"/><path fill="url(#i)" d="M174.49 270.58h-3.64v3.64h3.64v-3.64Z"/><path fill="url(#j)" d="M178.14 274.23h-3.64v3.64h3.64v-3.64Z"/><path fill="url(#k)" d="M170.85 266.94h-3.64v3.64h3.64v-3.64Z"/><path fill="url(#l)" d="M174.49 263.29h-3.64v3.64h3.64v-3.64Z"/><path fill="url(#m)" d="M178.14 259.65h-3.64v3.64h3.64v-3.64Z"/><path fill="url(#n)" d="M208.4 270.58h-3.64v3.64h3.64v-3.64Z"/><path fill="url(#o)" d="M204.75 274.23h-3.64v3.64h3.64v-3.64Z"/><path fill="url(#p)" d="M212.04 266.94h-3.64v3.64h3.64v-3.64Z"/><path fill="url(#q)" d="M208.4 263.29h-3.64v3.64h3.64v-3.64Z"/><path fill="url(#r)" d="M204.75 259.65h-3.64v3.64h3.64v-3.64Z"/><path fill="#fff" d="M189.63 340.01c-8.04 0-14.57 6.52-14.57 14.57s6.52 14.57 14.57 14.57 14.57-6.52 14.57-14.57-6.52-14.57-14.57-14.57Zm11.39 12.79h-4.31c-.1-1.64-.33-3.19-.67-4.61a21.1 21.1 0 0 0 2.66-.71c1.19 1.52 2.01 3.33 2.32 5.32Zm-11.39 13.3c-.57 0-1.55-.95-2.4-2.76.78-.07 1.62-.11 2.51-.11h.1c.78 0 1.52.03 2.2.08-.86 1.84-1.84 2.79-2.41 2.79Zm5.54-2.37c.41.08.78.16 1.11.24-.52.37-1.08.7-1.66.98.19-.39.38-.8.55-1.23v.01Zm-10.54 1.23c-.57-.28-1.12-.6-1.63-.97.33-.08.7-.15 1.1-.23.17.42.35.82.53 1.2Zm5.21-4.77h-.11c-1.27 0-2.46.08-3.53.19-.32-1.3-.56-2.82-.63-4.54h8.12c-.08 1.71-.31 3.21-.63 4.5-.98-.1-2.06-.16-3.22-.16v.01Zm-4.24-7.38c.1-1.58.33-2.98.65-4.19 1.06.11 2.23.18 3.49.19h.11c1.15 0 2.21-.06 3.18-.16.31 1.2.54 2.59.64 4.16h-8.07Zm4.03-9.75c.56 0 1.5.9 2.34 2.63-.66.05-1.37.08-2.12.08h-.1c-.86 0-1.67-.04-2.44-.1.83-1.71 1.77-2.6 2.32-2.6v-.01Zm-5.47 2.18c-.35-.07-.68-.13-.98-.2.46-.31.95-.59 1.45-.84-.16.33-.32.68-.47 1.04Zm10.47-1.04c.52.25 1.01.54 1.49.86-.3.07-.64.14-1 .21-.15-.38-.31-.73-.48-1.08l-.01.01Zm-14.08 3.29c.54.17 1.46.42 2.68.67-.34 1.43-.58 3-.68 4.64h-4.31c.31-1.98 1.13-3.8 2.31-5.31Zm-2.38 8.35h4.35c.07 1.77.3 3.46.66 4.99-1.29.26-2.23.53-2.74.69a11.436 11.436 0 0 1-2.27-5.69v.01Zm20.63 5.7c-.5-.17-1.44-.47-2.73-.73.35-1.53.58-3.2.66-4.96h4.35c-.23 2.13-1.05 4.08-2.28 5.7v-.01Z"/><path stroke="#00E4F0" stroke-miterlimit="10" stroke-width=".5" d="M75.51.25h-6.49V101.1h6.49"/><path fill="#fff" d="M3.79 44.34H1.25v2.3H0v-5.78h1.25v2.3h2.54v-2.3h1.25v5.78H3.79v-2.3ZM7.95 40.87h1.22l2.41 5.78h-1.3l-.55-1.36H7.37l-.55 1.36H5.53l2.4-5.78h.02Zm1.36 3.34-.74-1.83-.74 1.83h1.48ZM13.63 43.76c0-1.64 1.36-2.98 3.04-2.98 1.34 0 2.46.86 2.85 2.07l-1.13.43c-.21-.77-.89-1.33-1.73-1.33-.99 0-1.79.81-1.79 1.8s.8 1.81 1.79 1.81c.83 0 1.52-.56 1.73-1.33l1.13.43a2.978 2.978 0 0 1-2.85 2.07c-1.68 0-3.04-1.34-3.04-2.98v.01ZM21.61 42.05h-1.97v-1.18h5.17v1.18h-1.96v4.6H21.6v-4.6h.01ZM24.92 43.76c0-1.65 1.36-2.98 3.03-2.98 1.67 0 3.03 1.33 3.03 2.98s-1.35 2.98-3.03 2.98c-1.68 0-3.03-1.33-3.03-2.98Zm3.03 1.81c.99 0 1.77-.81 1.77-1.81s-.79-1.8-1.77-1.8-1.76.8-1.76 1.8.78 1.81 1.76 1.81ZM31.83 40.87h2.61c1.12 0 1.97.82 1.97 1.9s-.85 1.89-1.97 1.89h-1.36v2h-1.25v-5.79Zm2.55 2.64c.45 0 .78-.31.78-.75s-.32-.74-.78-.74h-1.3v1.49h1.3ZM36.85 43.76c0-1.65 1.36-2.98 3.03-2.98 1.67 0 3.03 1.33 3.03 2.98s-1.35 2.98-3.03 2.98c-1.68 0-3.03-1.33-3.03-2.98Zm3.03 1.81c.99 0 1.77-.81 1.77-1.81s-.79-1.8-1.77-1.8-1.76.8-1.76 1.8.78 1.81 1.76 1.81ZM47.55 44.34h-2.54v2.3h-1.25v-5.78h1.25v2.3h2.54v-2.3h1.25v5.78h-1.25v-2.3ZM53.99 42.02h-2.82v1.19h2.36v1.11h-2.36v1.19h2.82v1.15h-4.07v-5.78h4.07v1.15-.01ZM1.81 57.2h-.56v2.3H0v-5.78h1.25v2.3h.56l1.75-2.3h1.49l-2.2 2.89 2.2 2.89H3.56l-1.75-2.3ZM5.14 58.34c.69 0 .89-.29.96-1.48l.21-3.14h4.2v5.78H9.26v-4.6H7.45l-.15 2.17c-.12 1.78-.7 2.48-2.05 2.48h-.03l-.12-1.21h.04ZM11.64 53.72h1.25v4.02l2.54-4.02h1.39v5.78h-1.25v-4.01l-2.53 4.01h-1.4v-5.78ZM22.01 54.87h-2.82v1.19h2.37v1.11h-2.37v1.19h2.82v1.15h-4.07v-5.78h4.07v1.15-.01ZM26.71 57.2h-2.54v2.3h-1.25v-5.78h1.25v2.3h2.54v-2.3h1.25v5.78h-1.25v-2.3ZM30.6 54.9h-1.97v-1.18h5.17v1.18h-1.96v4.6h-1.25v-4.6h.01ZM35.52 53.72h1.23l2.41 5.78h-1.3l-.55-1.36h-2.36l-.55 1.36h-1.29l2.4-5.78h.01Zm1.36 3.34-.74-1.83-.74 1.83h1.48ZM246.87 15.47h-.4v1.74h-.7v-4.12h.7v1.72h.42l1.45-1.72h.89l-1.72 2.06 1.72 2.06h-.9l-1.45-1.74h-.01ZM249.49 16.59c.52 0 .74-.37.81-1.35l.15-2.15h3.02v4.12h-.7v-3.47h-1.68l-.1 1.47c-.11 1.46-.52 2.07-1.42 2.07h-.03l-.07-.69h.03-.01ZM254.78 13.08h.7v3.03l2.08-3.03h.74v4.12h-.7v-3.08l-2.12 3.08h-.7v-4.12ZM259.32 15.14c0-1.23.88-2.14 2.02-2.14 1.14 0 2.02.92 2.02 2.05 0 .09-.02.22-.03.32h-3.29c.09.74.64 1.24 1.37 1.24.52 0 .96-.27 1.22-.7l.54.44c-.38.58-1 .92-1.73.92-1.21 0-2.12-.91-2.12-2.14v.01Zm3.33-.39c-.14-.63-.66-1.08-1.3-1.08s-1.14.44-1.28 1.08h2.59-.01ZM267.16 15.47h-2.1v1.74h-.7v-4.12h.7v1.72h2.1v-1.72h.7v4.12h-.7v-1.74ZM270.03 13.74h-1.38v-.66h3.45v.66h-1.37v3.47h-.7v-3.47ZM272.47 15.13c0-1.17.96-2.14 2.11-2.14.86 0 1.6.52 1.93 1.28l-.63.31c-.21-.54-.71-.91-1.3-.91-.78 0-1.41.66-1.41 1.46 0 .8.63 1.48 1.41 1.48.59 0 1.1-.37 1.3-.93l.62.31c-.32.76-1.08 1.29-1.93 1.29-1.16 0-2.11-.96-2.11-2.14l.01-.01ZM278.55 15.47h-.4v1.74h-.7v-4.12h.7v1.72h.42l1.45-1.72h.89l-1.72 2.06 1.72 2.06h-.9l-1.45-1.74h-.01ZM281.63 13.08h.7v3.03l2.08-3.03h.74v4.12h-.7v-3.08l-2.12 3.08h-.7v-4.12ZM286.18 15.14c0-1.23.88-2.14 2.02-2.14 1.14 0 2.02.92 2.02 2.05 0 .09-.02.22-.03.32h-3.29c.09.74.64 1.24 1.37 1.24.52 0 .96-.27 1.22-.7l.54.44c-.38.58-1 .92-1.73.92-1.21 0-2.12-.91-2.12-2.14v.01Zm3.32-.39c-.14-.63-.66-1.08-1.3-1.08s-1.14.44-1.28 1.08h2.59-.01ZM246.95 26.55l-1.75-3.49h.77l1.36 2.72 1.35-2.72h.76l-2.95 5.99h-.76l1.23-2.5h-.01ZM249.74 25.11c0-1.17.96-2.14 2.11-2.14.86 0 1.6.52 1.93 1.28l-.63.31c-.21-.54-.71-.91-1.3-.91-.78 0-1.41.66-1.41 1.46 0 .8.63 1.48 1.41 1.48.59 0 1.1-.37 1.3-.93l.62.31c-.32.76-1.08 1.29-1.93 1.29-1.15 0-2.11-.96-2.11-2.14l.01-.01ZM255.47 23.72h-1.38v-.66h3.45v.66h-1.37v3.47h-.7v-3.47ZM258.34 23.06h.7v.49c.3-.37.73-.57 1.26-.57 1.16 0 2.1.96 2.1 2.14 0 1.18-.95 2.14-2.1 2.14-.53 0-.96-.2-1.26-.57v2.37h-.7v-6Zm1.94 3.53c.79 0 1.43-.66 1.43-1.47 0-.81-.64-1.47-1.43-1.47-.52 0-1 .3-1.24.76v1.43c.24.46.71.76 1.24.76v-.01ZM263.12 25.11c0-1.17.96-2.14 2.13-2.14a2.14 2.14 0 0 1 0 4.28 2.14 2.14 0 0 1-2.13-2.14Zm2.13 1.48c.79 0 1.43-.66 1.43-1.47 0-.81-.64-1.47-1.43-1.47-.79 0-1.43.66-1.43 1.46 0 .8.64 1.48 1.43 1.48ZM268.4 23.06h.7v3.03l2.08-3.03h.74v4.12h-.7V24.1l-2.12 3.08h-.7v-4.12Zm1-2.29c.07.42.35.66.76.66.41 0 .68-.24.76-.66h.66c-.09.77-.62 1.25-1.41 1.25-.79 0-1.32-.48-1.41-1.25h.66-.02ZM272.94 25.11c0-1.17.96-2.14 2.11-2.14.86 0 1.6.52 1.93 1.28l-.63.31c-.21-.54-.71-.91-1.3-.91-.78 0-1.41.66-1.41 1.46 0 .8.63 1.48 1.41 1.48.59 0 1.1-.37 1.3-.93l.62.31c-.32.76-1.08 1.29-1.93 1.29-1.16 0-2.11-.96-2.11-2.14l.01-.01ZM278.67 23.72h-1.38v-.66h3.45v.66h-1.37v3.47h-.7v-3.47ZM281.54 23.06h2.14c.67 0 1.2.51 1.2 1.16 0 .36-.16.66-.42.86.33.2.54.54.54.95 0 .65-.53 1.16-1.21 1.16h-2.25v-4.13Zm2.08 1.75c.35 0 .56-.22.56-.54 0-.32-.22-.55-.56-.55h-1.38v1.09h1.38Zm.12 1.71c.35 0 .57-.21.57-.54 0-.33-.22-.55-.57-.55h-1.5v1.09h1.5ZM285.73 25.12c0-1.18.95-2.14 2.1-2.14.53 0 .97.2 1.26.57v-.49h.7v4.12h-.7v-.5c-.3.37-.73.57-1.26.57-1.15 0-2.1-.96-2.1-2.14v.01Zm2.13 1.47c.52 0 .99-.29 1.24-.74v-1.46c-.25-.45-.72-.74-1.24-.74-.79 0-1.43.66-1.43 1.47 0 .81.64 1.47 1.43 1.47ZM220.45 279.53h.7v.44c.27-.33.67-.52 1.13-.52.54 0 1.02.27 1.33.69.3-.43.79-.69 1.38-.69 1 0 1.79.79 1.79 1.8v2.4h-.7v-2.4c0-.62-.48-1.13-1.09-1.13-.49 0-.91.33-1.05.79.02.11.02.22.02.33v2.41h-.7v-2.41c0-.62-.49-1.12-1.1-1.12-.46 0-.86.28-1.02.68v2.85h-.7v-4.12h.01ZM228.02 279.53h.7v.6c.32-.4.85-.65 1.44-.65h.02l.08.7h-.03c-.75 0-1.31.34-1.52.89v2.59h-.7v-4.12l.01-.01ZM232.74 280.12c-.46 0-.86.28-1.02.68v2.85h-.7v-4.12h.7v.42c.28-.32.68-.51 1.14-.51 1 0 1.68.88 1.68 1.79v2.41h-.7v-2.41c0-.62-.49-1.12-1.1-1.12v.01ZM235.49 281.59c0-1.23.88-2.14 2.02-2.14 1.14 0 2.02.92 2.02 2.05 0 .09-.02.22-.03.32h-3.29c.09.74.64 1.24 1.37 1.24.52 0 .96-.27 1.22-.7l.54.44c-.38.58-1 .92-1.73.92-1.21 0-2.12-.91-2.12-2.14v.01Zm3.32-.39c-.14-.63-.66-1.08-1.3-1.08s-1.14.44-1.28 1.08h2.59-.01ZM240.98 282.37v-2.18h-1.05v-.66h1.05v-1.3h.7v1.3h1.57v.66h-1.57v2.1c0 .48.27.77.73.77.27 0 .5-.1.71-.3l.34.54c-.28.27-.66.42-1.09.42-.83 0-1.4-.56-1.4-1.36l.01.01ZM220.16 291.56c0-1.17.96-2.14 2.11-2.14.86 0 1.6.52 1.93 1.28l-.63.31c-.21-.54-.71-.91-1.3-.91-.78 0-1.41.66-1.41 1.46 0 .8.63 1.48 1.41 1.48.59 0 1.1-.37 1.3-.93l.62.31c-.32.76-1.08 1.29-1.93 1.29-1.16 0-2.11-.97-2.11-2.15h.01ZM226.27 293l-1.75-3.49h.77l1.36 2.72 1.35-2.72h.76l-2.95 5.99h-.76l1.23-2.5h-.01ZM229.66 289.51h.73l1.28 3.15 1.28-3.15h.73l.57 4.12h-.7l-.4-2.89-1.17 2.89h-.61l-1.17-2.89-.4 2.89h-.7l.57-4.12h-.01ZM235.6 289.51h.73l1.28 3.15 1.28-3.15h.73l.57 4.12h-.7l-.4-2.89-1.17 2.89h-.61l-1.17-2.89-.4 2.89h-.7l.57-4.12h-.01ZM241.24 289.51h.7v3.03l2.08-3.03h.74v4.12h-.7v-3.08l-2.12 3.08h-.7v-4.12ZM246.07 289.51h.7v.49c.3-.37.73-.57 1.26-.57 1.15 0 2.1.96 2.1 2.14 0 1.18-.95 2.14-2.1 2.14-.53 0-.97-.2-1.26-.57v2.37h-.7v-6Zm1.94 3.53c.79 0 1.43-.66 1.43-1.47 0-.81-.64-1.47-1.43-1.47-.52 0-1 .3-1.24.76v1.43c.24.46.71.76 1.24.76v-.01ZM252.19 293l-1.75-3.49h.77l1.36 2.72 1.35-2.72h.76l-2.95 5.99h-.76l1.23-2.5h-.01ZM256.88 291.9h-.8v1.74h-.7v-4.12h.7v1.72h.8c.17-1.02 1.06-1.8 2.11-1.8 1.16 0 2.12.96 2.12 2.14 0 1.18-.96 2.15-2.12 2.15a2.14 2.14 0 0 1-2.11-1.81v-.02Zm2.11 1.15c.79 0 1.42-.66 1.42-1.48s-.63-1.46-1.42-1.46c-.79 0-1.44.65-1.44 1.46 0 .81.64 1.48 1.44 1.48ZM262.12 289.51h.7v3.46h1.91v-3.46h.7v3.46h1.91v-3.46h.7v3.46h.72v1.84h-.66v-1.18h-5.98v-4.12ZM269.7 289.51h.7v3.03l2.08-3.03h.74v4.12h-.7v-3.08l-2.12 3.08h-.7v-4.12ZM274.53 289.51h.7v3.03l2.08-3.03h.74v4.12h-.7v-3.08l-2.12 3.08h-.7v-4.12Zm1-2.29c.07.42.35.66.76.66.41 0 .68-.24.76-.66h.66c-.09.77-.62 1.25-1.41 1.25-.79 0-1.32-.48-1.41-1.25h.66-.02ZM220.16 301.54c0-1.17.96-2.14 2.11-2.14.86 0 1.6.52 1.93 1.28l-.63.31c-.21-.54-.71-.91-1.3-.91-.78 0-1.41.66-1.41 1.46 0 .8.63 1.48 1.41 1.48.59 0 1.1-.37 1.3-.93l.62.31c-.32.76-1.08 1.29-1.93 1.29-1.16 0-2.11-.97-2.11-2.15h.01ZM224.85 301.55c0-1.23.88-2.14 2.02-2.14 1.14 0 2.02.92 2.02 2.05 0 .09-.02.22-.03.32h-3.29c.09.74.64 1.24 1.37 1.24.52 0 .96-.27 1.22-.7l.54.44c-.38.58-1 .92-1.73.92-1.21 0-2.12-.91-2.12-2.14v.01Zm3.32-.39c-.14-.63-.66-1.08-1.3-1.08s-1.14.44-1.28 1.08h2.59-.01ZM229.88 299.49h.7v.49c.3-.37.73-.57 1.26-.57 1.16 0 2.1.96 2.1 2.14 0 1.18-.95 2.14-2.1 2.14-.53 0-.96-.2-1.26-.57v2.37h-.7v-6Zm1.94 3.53c.79 0 1.43-.66 1.43-1.47 0-.81-.64-1.47-1.43-1.47-.52 0-1 .3-1.24.76v1.43c.24.46.71.76 1.24.76v-.01ZM234.97 299.49h2.14c.67 0 1.2.51 1.2 1.16 0 .36-.16.66-.42.86.33.2.54.54.54.95 0 .65-.53 1.15-1.2 1.15h-2.25v-4.12h-.01Zm2.08 1.74c.35 0 .57-.22.57-.54 0-.32-.22-.55-.57-.55h-1.38v1.09h1.38Zm.12 1.71c.35 0 .57-.21.57-.54 0-.33-.22-.55-.57-.55h-1.5v1.09h1.5ZM239.16 301.55c0-1.23.88-2.14 2.02-2.14 1.14 0 2.02.92 2.02 2.05 0 .09-.02.22-.03.32h-3.29c.09.74.64 1.24 1.37 1.24.52 0 .96-.27 1.22-.7l.54.44c-.38.58-1 .92-1.73.92-1.21 0-2.12-.91-2.12-2.14v.01Zm3.33-.39c-.14-.63-.66-1.08-1.3-1.08s-1.14.44-1.28 1.08h2.59-.01ZM244.2 299.49h.7v.49c.3-.37.73-.57 1.26-.57 1.15 0 2.1.96 2.1 2.14 0 1.18-.95 2.14-2.1 2.14-.53 0-.97-.2-1.26-.57v2.37h-.7v-6Zm1.94 3.53c.79 0 1.43-.66 1.43-1.47 0-.81-.64-1.47-1.43-1.47-.52 0-1 .3-1.24.76v1.43c.24.46.71.76 1.24.76v-.01ZM220.39 351.09h.7v3.03l2.08-3.03h.74v4.12h-.7v-3.08l-2.12 3.08h-.7v-4.12ZM228.02 353.47h-2.1v1.74h-.7v-4.12h.7v1.72h2.1v-1.72h.7v4.12h-.7v-1.74ZM230.89 351.74h-1.38v-.66h3.45v.66h-1.37v3.47h-.7v-3.47ZM233.34 353.15c0-1.23.88-2.14 2.02-2.14 1.14 0 2.02.92 2.02 2.05 0 .09-.02.22-.03.32h-3.29c.09.74.64 1.24 1.37 1.24.52 0 .96-.27 1.22-.7l.54.44c-.38.58-1 .92-1.73.92-1.21 0-2.12-.91-2.12-2.14v.01Zm3.32-.39c-.14-.63-.66-1.08-1.3-1.08s-1.14.44-1.28 1.08h2.59-.01ZM238.38 351.09h.7v.49c.3-.37.73-.57 1.26-.57 1.16 0 2.1.96 2.1 2.14 0 1.18-.95 2.14-2.1 2.14-.53 0-.96-.2-1.26-.57v2.37h-.7v-6Zm1.94 3.53c.79 0 1.43-.66 1.43-1.47 0-.81-.64-1.47-1.43-1.47-.52 0-1 .3-1.24.76v1.43c.24.46.71.76 1.24.76v-.01ZM246.26 353.47h-2.1v1.74h-.7v-4.12h.7v1.72h2.1v-1.72h.7v4.12h-.7v-1.74ZM247.98 353.15c0-1.23.88-2.14 2.02-2.14 1.14 0 2.02.92 2.02 2.05 0 .09-.02.22-.03.32h-3.29c.09.74.64 1.24 1.37 1.24.52 0 .96-.27 1.22-.7l.54.44c-.38.58-1 .92-1.73.92-1.21 0-2.12-.91-2.12-2.14v.01Zm3.33-.39c-.14-.63-.66-1.08-1.3-1.08s-1.14.44-1.28 1.08h2.59-.01ZM253.76 351.74h-1.38v-.66h3.45v.66h-1.37v3.47h-.7v-3.47Z"/><path stroke="#00E4F0" stroke-miterlimit="10" stroke-width=".5" d="M75.51 261.94h-6.49v108.24h6.49"/><path fill="#fff" d="M0 303.21c0-1.64 1.36-2.98 3.04-2.98 1.34 0 2.46.86 2.85 2.07l-1.13.43c-.21-.77-.89-1.33-1.73-1.33-.99 0-1.79.81-1.79 1.8s.8 1.81 1.79 1.81c.83 0 1.52-.56 1.73-1.33l1.13.43a2.978 2.978 0 0 1-2.85 2.07c-1.68 0-3.04-1.34-3.04-2.98v.01ZM8.04 304.56l-2.2-4.25h1.4l1.47 2.88 1.42-2.88h1.38l-2.87 5.78H7.28l.76-1.53ZM12.23 300.32h1.25l1.62 4.06 1.62-4.06h1.25l.79 5.78h-1.22l-.48-3.51-1.4 3.51h-1.12l-1.4-3.52-.47 3.52h-1.23l.79-5.78ZM20.11 300.32h1.25l1.62 4.06 1.62-4.06h1.25l.79 5.78h-1.23l-.48-3.51-1.39 3.51h-1.12l-1.39-3.52-.47 3.52h-1.22l.79-5.78h-.02ZM27.48 300.32h1.25v4.02l2.54-4.02h1.39v5.78h-1.25v-4.01l-2.53 4.01h-1.4v-5.78ZM33.78 300.32h2.61c1.12 0 1.97.82 1.97 1.9s-.85 1.89-1.97 1.89h-1.37v2h-1.25v-5.78l.01-.01Zm2.55 2.64c.45 0 .78-.31.78-.75s-.32-.74-.78-.74h-1.3v1.49h1.3ZM40.57 304.56l-2.2-4.25h1.39l1.47 2.88 1.42-2.88h1.38l-2.87 5.78H39.8l.76-1.53h.01ZM48.58 301.46h-2.82v1.19h2.37v1.11h-2.37v1.19h2.82v1.15h-4.07v-5.78h4.07v1.15-.01ZM50.01 300.32h1.25l1.62 4.06 1.62-4.06h1.25l.79 5.78h-1.23l-.48-3.51-1.4 3.51h-1.12l-1.4-3.52-.47 3.52h-1.22l.79-5.78ZM0 316.06c0-1.64 1.36-2.98 3.04-2.98 1.34 0 2.46.86 2.85 2.07l-1.13.43c-.21-.77-.89-1.33-1.73-1.33-.99 0-1.79.81-1.79 1.8s.8 1.81 1.79 1.81c.83 0 1.52-.56 1.73-1.33l1.13.43a2.978 2.978 0 0 1-2.85 2.07c-1.68 0-3.04-1.34-3.04-2.98v.01ZM8.43 316.64h-.56v2.3H6.62v-5.78h1.25v2.3h.56l1.75-2.3h1.49l-2.2 2.89 2.2 2.89h-1.49l-1.75-2.3Z"/><path fill="#fff" d="M11.51 316.06c0-1.65 1.36-2.97 3.03-2.97 1.67 0 3.03 1.33 3.03 2.97 0 1.64-1.35 2.98-3.03 2.98-1.68 0-3.03-1.33-3.03-2.98Zm3.03 1.81c.99 0 1.77-.81 1.77-1.81s-.79-1.8-1.77-1.8-1.76.8-1.76 1.8.78 1.81 1.76 1.81ZM18.42 313.17h2.61c1.12 0 1.97.82 1.97 1.9s-.85 1.89-1.97 1.89h-1.37v2h-1.25v-5.78l.01-.01Zm2.55 2.64c.45 0 .78-.31.78-.75s-.32-.74-.78-.74h-1.3v1.49h1.3ZM23.44 316.06c0-1.65 1.36-2.97 3.03-2.97 1.67 0 3.03 1.33 3.03 2.97 0 1.64-1.35 2.98-3.03 2.98-1.68 0-3.03-1.33-3.03-2.98Zm3.03 1.81c.99 0 1.77-.81 1.77-1.81s-.79-1.8-1.77-1.8-1.76.8-1.76 1.8.78 1.81 1.76 1.81ZM30.08 316.06c0-1.64 1.36-2.98 3.04-2.98 1.34 0 2.46.86 2.85 2.07l-1.13.43c-.21-.77-.89-1.33-1.73-1.33-.99 0-1.79.81-1.79 1.8s.8 1.81 1.79 1.81c.83 0 1.52-.56 1.73-1.33l1.13.43a2.978 2.978 0 0 1-2.85 2.07c-1.68 0-3.04-1.34-3.04-2.98v.01ZM38.05 314.35h-1.97v-1.18h5.17v1.18h-1.96v4.6h-1.25v-4.6h.01ZM41.93 313.17h1.25v1.94h1.33c1.14 0 2 .82 2 1.9s-.86 1.94-2 1.94h-2.57v-5.78h-.01Zm2.51 4.63c.48 0 .82-.32.82-.78s-.33-.77-.82-.77h-1.26v1.55h1.26ZM.28 326.02H5.2v5.78H3.95v-4.6H1.53v4.6H.28v-5.78ZM6.05 328.91c0-1.65 1.36-2.97 3.03-2.97 1.67 0 3.03 1.33 3.03 2.97 0 1.64-1.35 2.98-3.03 2.98-1.68 0-3.03-1.33-3.03-2.98Zm3.03 1.81c.99 0 1.77-.81 1.77-1.81s-.79-1.8-1.77-1.8-1.76.8-1.76 1.8.78 1.81 1.76 1.81ZM16.83 329.5h-.56v2.3h-1.25v-5.78h1.25v2.3h.56l1.75-2.3h1.5l-2.2 2.89 2.2 2.89h-1.5l-1.75-2.3Z"/><path fill="#fff" d="M22.4 326.02h1.22l2.41 5.78h-1.3l-.55-1.36h-2.36l-.55 1.36h-1.29l2.4-5.78h.02Zm1.36 3.34-.74-1.83-.74 1.83h1.48ZM30.33 329.5h-2.54v2.3h-1.25v-5.78h1.25v2.3h2.54v-2.3h1.25v5.78h-1.25v-2.3ZM34.5 326.02h1.22l2.41 5.78h-1.3l-.55-1.36h-2.36l-.55 1.36h-1.29l2.4-5.78h.02Zm1.36 3.34-.74-1.83-.74 1.83h1.48ZM38.19 330.64c.69 0 .89-.29.96-1.48l.21-3.14h4.2v5.78h-1.25v-4.6H40.5l-.15 2.16c-.12 1.78-.7 2.48-2.05 2.48h-.03l-.12-1.21h.03l.01.01ZM46.48 326.02h1.22l2.41 5.78h-1.3l-.55-1.36H45.9l-.55 1.36h-1.29l2.4-5.78h.02Zm1.36 3.34-.74-1.83-.74 1.83h1.48ZM51.14 326.02h1.25l1.62 4.06 1.62-4.06h1.25l.79 5.78h-1.23l-.48-3.51-1.39 3.51h-1.12l-1.39-3.52-.47 3.52h-1.22l.79-5.78h-.02Z"/><path fill="#00E4F0" d="m106.36 274.15 2.29-2.21c.49-.49.69-.82.69-1.21 0-.59-.46-1.03-1.06-1.03-.66 0-1.12.48-1.18 1.25l-1-.18c.11-1.26.96-2.09 2.17-2.09s2.13.84 2.13 2c0 .71-.31 1.27-1.07 2l-1.52 1.46h2.71v1.01h-4.16v-1ZM111.46 272.98v-2.02c0-1.28 1-2.27 2.27-2.27s2.27.99 2.27 2.27v2.02c0 1.28-.99 2.27-2.27 2.27s-2.27-1-2.27-2.27Zm2.27 1.27c.7 0 1.22-.54 1.22-1.24v-2.07c0-.71-.52-1.24-1.22-1.24s-1.22.54-1.22 1.24v2.07c0 .71.53 1.24 1.22 1.24ZM108.8 281.7h1.89v-1.93h.96v1.93h1.88v.95h-1.88v1.94h-.96v-1.94h-1.89v-.95ZM108.52 290.98h-1.46v-1.01h1.13c.24 0 .36-.12.36-.35v-.42h1.04v6.38h-1.06v-4.6h-.01ZM110.7 294.07l.94-.35c.14.57.61.95 1.2.95.68 0 1.22-.51 1.22-1.17 0-.66-.54-1.18-1.22-1.18-.43 0-.8.2-1.02.54l-.87-.28v-3.39h3.88v1h-2.86v1.4c.31-.16.65-.25 1-.25 1.14 0 2.13.99 2.13 2.15s-1 2.16-2.24 2.16c-1.02 0-1.89-.69-2.15-1.6l-.01.02ZM108.8 302.12h1.89v-1.93h.96v1.93h1.88v.95h-1.88v1.94h-.96v-1.94h-1.89v-.95ZM108.97 314.49l.94-.35c.14.57.61.95 1.2.95.68 0 1.22-.51 1.22-1.17 0-.66-.54-1.18-1.22-1.18-.42 0-.8.2-1.02.54l-.87-.28v-3.38h3.88v1h-2.86v1.4c.31-.16.65-.25 1-.25 1.14 0 2.13.99 2.13 2.15s-1 2.16-2.25 2.16c-1.02 0-1.89-.69-2.15-1.6v.01ZM108.8 322.55h1.89v-1.93h.96v1.93h1.88v.95h-1.88v1.94h-.96v-1.94h-1.89v-.95ZM106.18 334.92l.94-.35c.14.57.61.95 1.2.95.68 0 1.22-.51 1.22-1.17 0-.66-.54-1.18-1.22-1.18-.42 0-.8.2-1.02.54l-.87-.28v-3.38h3.88v1h-2.86v1.4c.31-.16.65-.25 1-.25 1.14 0 2.13.99 2.13 2.15s-1 2.16-2.25 2.16c-1.02 0-1.89-.69-2.15-1.6v.01ZM111.46 334.24v-2.02c0-1.28 1-2.27 2.27-2.27s2.27.99 2.27 2.27v2.02c0 1.28-.99 2.27-2.27 2.27s-2.27-1-2.27-2.27Zm2.27 1.27c.7 0 1.22-.54 1.22-1.24v-2.08c0-.71-.52-1.24-1.22-1.24s-1.22.54-1.22 1.24v2.08c0 .71.53 1.24 1.22 1.24ZM108.88 341.81h4.56v.95h-4.56v-.95Zm0 2.31h4.56v.95h-4.56v-.95ZM85.86 354.83c0 .74-.27 1.38-.94 2.34l-2.48 3.5h-1.75l1.95-2.75h-.14c-1.69 0-3.1-1.37-3.1-3.03 0-1.66 1.44-3.12 3.22-3.12 1.78 0 3.24 1.36 3.24 3.07v-.01Zm-3.14 1.74c.37 0 .74-.08 1.04-.25.48-.68.64-1.06.64-1.47 0-.91-.83-1.68-1.79-1.68-.96 0-1.77.77-1.77 1.73s.81 1.67 1.87 1.67h.01ZM87.07 357.68v-2.78c0-1.76 1.37-3.12 3.12-3.12s3.12 1.36 3.12 3.12v2.78c0 1.76-1.36 3.12-3.12 3.12s-3.12-1.37-3.12-3.12Zm3.12 1.74c.96 0 1.67-.75 1.67-1.71v-2.86c0-.97-.71-1.71-1.67-1.71s-1.67.74-1.67 1.71v2.86c0 .97.73 1.71 1.67 1.71ZM98.98 351.9h1.51l2.67 6.72 2.66-6.72h1.52l1.17 8.78h-1.44l-.82-6.11-2.42 6.11h-1.33l-2.43-6.1-.82 6.1h-1.44l1.18-8.78h-.01ZM109.56 357.38v-.95c0-2.88 1-4.29 3.24-4.61.81-.12 1.57-.26 2.32-.43l.21 1.32c-.75.18-1.53.33-2.3.43-1.47.22-2.06.9-2.12 2.55.47-.57 1.14-.89 1.95-.89 1.63 0 2.89 1.29 2.89 2.96s-1.36 3.03-3.09 3.03c-1.73 0-3.1-1.43-3.1-3.42v.01Zm3.1 2.11c.95 0 1.71-.76 1.71-1.72s-.75-1.7-1.68-1.7c-.74 0-1.42.46-1.74 1.16v.42c0 1.04.75 1.84 1.72 1.84h-.01ZM116.96 354.77h1.38v3.76l2.43-3.76h1.45v5.9h-1.38v-3.85l-2.5 3.85h-1.38v-5.9ZM125.03 356.08h-1.82v-1.31h5.02v1.31h-1.81v4.59h-1.38v-4.59h-.01ZM136.23 350.26h1.68l-8.5 12.13h-1.68l8.5-12.13ZM137.16 357.71c0-1.68 1.39-3.07 3.08-3.07 1.26 0 2.35.77 2.81 1.9l-1.23.59c-.23-.69-.85-1.16-1.58-1.16-.94 0-1.7.8-1.7 1.74s.77 1.77 1.7 1.77c.74 0 1.35-.48 1.58-1.18l1.23.59a3.018 3.018 0 0 1-2.81 1.92c-1.69 0-3.08-1.39-3.08-3.09v-.01Z"/><path stroke="#00E4F0" stroke-miterlimit="10" stroke-width=".5" d="M75.51 130.41h-6.49v30.35h6.49"/><path fill="#fff" d="m0 134.22 1.09-.47c.15.59.62.94 1.33.94.58 0 .94-.25.94-.65 0-.31-.18-.48-.61-.58l-1.02-.23c-.88-.19-1.41-.79-1.41-1.6 0-1.03.87-1.77 2.1-1.77 1.09 0 1.87.56 2.1 1.48l-1.09.46c-.12-.5-.52-.81-1.08-.81-.5 0-.82.25-.82.62 0 .28.18.45.55.54l1.03.23c.93.21 1.46.8 1.46 1.62 0 1.07-.91 1.82-2.22 1.82-1.2 0-2.1-.63-2.35-1.6ZM5.44 129.95h1.25v5.78H5.44v-5.78ZM8.32 129.95h1.25l1.62 4.06 1.62-4.06h1.25l.79 5.78h-1.23l-.48-3.51-1.4 3.51h-1.12l-1.4-3.52-.47 3.52H7.53l.79-5.78ZM15.41 132.29h2.37v1.1h-2.37v-1.1ZM20.51 133.42h-.56v2.3H18.7v-5.78h1.25v2.3h.56l1.75-2.3h1.5l-2.2 2.89 2.2 2.89h-1.5l-1.75-2.3Z"/><path fill="#fff" d="M26.08 129.95h1.22l2.41 5.78h-1.3l-.55-1.36H25.5l-.55 1.36h-1.29l2.4-5.78h.02Zm1.36 3.34-.74-1.83-.74 1.83h1.48ZM30.23 129.95h2.61c1.12 0 1.97.82 1.97 1.9s-.85 1.89-1.97 1.89h-1.36v2h-1.25v-5.79Zm2.55 2.64c.45 0 .78-.31.78-.75s-.32-.74-.78-.74h-1.3v1.49h1.3ZM36.99 131.13h-1.97v-1.18h5.17v1.18h-1.96v4.6h-1.25v-4.6h.01ZM40.87 129.95h1.25v1.94h1.33c1.14 0 2 .82 2 1.9s-.86 1.93-2 1.93h-2.57v-5.78l-.01.01Zm2.51 4.63c.48 0 .82-.32.82-.78s-.33-.77-.82-.77h-1.26v1.55h1.26Zm2.64-4.63h1.25v5.78h-1.25v-5.78ZM.39 142.8h1.25v4.02l2.54-4.02h1.39v5.78H4.32v-4.01l-2.53 4.01H.39v-5.78ZM12.82 143.95H10v1.19h2.37v1.11H10v1.19h2.82v1.15H8.75v-5.78h4.07v1.15-.01ZM15.25 143.98h-1.97v-1.18h5.17v1.18h-1.96v4.6h-1.25v-4.6h.01ZM22.91 146.27h-2.54v2.3h-1.25v-5.78h1.25v2.3h2.54v-2.3h1.25v5.78h-1.25v-2.3ZM29.36 143.95h-2.82v1.19h2.36v1.11h-2.36v1.19h2.82v1.15h-4.07v-5.78h4.07v1.15-.01ZM30.28 142.8h2.64c1.1 0 1.94.83 1.94 1.87 0 .79-.49 1.48-1.22 1.75l1.49 2.16h-1.46l-1.4-2.03h-.75v2.03h-1.25v-5.78h.01Zm2.55 2.64c.45 0 .78-.32.78-.76s-.32-.75-.78-.75h-1.3v1.5h1.3v.01ZM35.86 142.8h1.39l2.54 3.87v-3.87h1.25v5.78h-1.41l-2.52-3.87v3.87h-1.25v-5.78ZM46.23 143.95h-2.82v1.19h2.37v1.11h-2.37v1.19h2.82v1.15h-4.07v-5.78h4.07v1.15-.01ZM48.65 143.98h-1.97v-1.18h5.17v1.18h-1.96v4.6h-1.25v-4.6h.01ZM51.77 145.14h2.37v1.1h-2.37v-1.1ZM2.21 159.13h-.56v2.3H.39v-5.78h1.25v2.3h.56l1.75-2.3h1.49l-2.2 2.89 2.2 2.89H3.95l-1.75-2.3h.01Z"/><path fill="#fff" d="M7.77 155.65h1.22l2.41 5.78h-1.3l-.55-1.36H7.19l-.55 1.36H5.35l2.4-5.78h.02Zm1.36 3.34-.74-1.83-.74 1.83h1.48ZM11.92 155.65h4.19v1.15h-2.94v1.14h1.5c1.02 0 1.8.75 1.8 1.74s-.78 1.75-1.8 1.75h-2.74v-5.78h-.01Zm2.59 4.7c.41 0 .7-.29.7-.69 0-.4-.29-.69-.7-.69h-1.34v1.39h1.34v-.01ZM21.36 156.8h-2.82v1.19h2.37v1.11h-2.37v1.19h2.82v1.15h-4.07v-5.78h4.07v1.15-.01ZM21.82 160.27c.69 0 .89-.29.96-1.48l.21-3.14h4.2v5.78h-1.25v-4.6h-1.81l-.15 2.17c-.12 1.78-.7 2.48-2.05 2.48h-.03l-.12-1.21h.04ZM28.32 155.65h1.25v1.94h1.33c1.14 0 2.01.82 2.01 1.9s-.86 1.93-2.01 1.93h-2.57v-5.78l-.01.01Zm2.51 4.63c.48 0 .82-.32.82-.78s-.33-.77-.82-.77h-1.27v1.55h1.27Z"/><path stroke="#00E4F0" stroke-miterlimit="10" stroke-width=".5" d="M75.51 196.28h-6.49v33.66h6.49"/><path fill="#fff" d="M.28 203.79h2.61c1.12 0 1.97.82 1.97 1.9s-.85 1.89-1.97 1.89H1.53v2H.28v-5.79Zm2.55 2.64c.45 0 .78-.31.78-.75s-.32-.74-.78-.74h-1.3v1.49h1.3ZM6.82 203.79h1.22l2.41 5.78h-1.3l-.55-1.36H6.24l-.55 1.36H4.4l2.4-5.78h.02Zm1.36 3.34-.74-1.83-.74 1.83h1.48ZM10.48 207.68l1.12-.31c.18.77.67 1.14 1.5 1.14.66 0 1.06-.25 1.06-.69 0-.39-.32-.61-.91-.61h-1v-1.08h.86c.58 0 .89-.22.89-.61 0-.43-.36-.69-.98-.69-.79 0-1.27.39-1.43 1.17l-1.11-.3c.27-1.26 1.19-2.02 2.53-2.02 1.34 0 2.21.72 2.21 1.75 0 .5-.22.91-.61 1.18.48.28.76.72.76 1.27 0 1.02-.99 1.76-2.33 1.76s-2.28-.73-2.56-1.98v.02ZM20.01 207.27h-2.54v2.3h-1.25v-5.78h1.25v2.3h2.54v-2.3h1.25v5.78h-1.25v-2.3ZM22.39 203.79h1.25v1.94h1.33c1.14 0 2 .82 2 1.9s-.86 1.94-2 1.94H22.4v-5.78h-.01Zm2.51 4.63c.48 0 .82-.32.82-.78s-.33-.77-.82-.77h-1.26v1.55h1.26Zm2.64-4.63h1.25v5.78h-1.25v-5.78ZM33.98 204.94h-2.82v1.19h2.37v1.11h-2.37v1.19h2.82v1.15h-4.07v-5.78h4.07v1.15-.01ZM0 219.53c0-1.65 1.36-2.97 3.03-2.97 1.67 0 3.03 1.33 3.03 2.97 0 1.64-1.35 2.98-3.03 2.98-1.68 0-3.03-1.33-3.03-2.98Zm3.03 1.81c.99 0 1.77-.81 1.77-1.81s-.79-1.8-1.77-1.8-1.76.8-1.76 1.8.78 1.81 1.76 1.81ZM6.91 216.64h4.92v5.78h-1.25v-4.6H8.15v4.6H6.9v-5.78h.01ZM17.03 217.79h-2.82v1.19h2.37v1.11h-2.37v1.19h2.82v1.15h-4.07v-5.78h4.07v1.15-.01ZM17.95 216.64h2.61c1.12 0 1.97.82 1.97 1.9s-.85 1.89-1.97 1.89H19.2v2h-1.25v-5.79Zm2.55 2.64c.45 0 .78-.31.78-.75s-.32-.74-.78-.74h-1.3v1.49h1.3ZM24.49 216.64h1.22l2.41 5.78h-1.3l-.55-1.36h-2.36l-.55 1.36h-1.29l2.4-5.78h.02Zm1.36 3.34-.74-1.83-.74 1.83h1.48ZM29.41 217.82h-1.97v-1.18h5.17v1.18h-1.96v4.6H29.4v-4.6h.01ZM32.73 219.53c0-1.65 1.36-2.97 3.03-2.97 1.67 0 3.03 1.33 3.03 2.97 0 1.64-1.35 2.98-3.03 2.98-1.68 0-3.03-1.33-3.03-2.98Zm3.03 1.81c.99 0 1.77-.81 1.77-1.81s-.79-1.8-1.77-1.8-1.76.8-1.76 1.8.78 1.81 1.76 1.81ZM39.64 216.64h2.61c1.12 0 1.97.82 1.97 1.9s-.85 1.89-1.97 1.89h-1.36v2h-1.25v-5.79Zm2.55 2.64c.45 0 .78-.31.78-.75s-.32-.74-.78-.74h-1.3v1.49h1.3ZM44.93 216.64h1.25v1.94h1.33c1.14 0 2 .82 2 1.9s-.86 1.94-2 1.94h-2.57v-5.78h-.01Zm2.51 4.63c.48 0 .82-.32.82-.78s-.33-.77-.82-.77h-1.26v1.55h1.26Zm2.64-4.63h1.25v5.78h-1.25v-5.78ZM163.74 322.88c0-1.17.96-2.14 2.11-2.14.86 0 1.6.52 1.93 1.28l-.63.31c-.21-.54-.71-.91-1.3-.91-.78 0-1.41.66-1.41 1.46 0 .8.63 1.48 1.41 1.48.59 0 1.1-.37 1.3-.93l.62.31c-.32.76-1.08 1.29-1.93 1.29-1.16 0-2.11-.97-2.11-2.15h.01ZM169.47 321.48h-1.38v-.66h3.45v.66h-1.37v3.46h-.7v-3.46ZM171.91 322.89c0-1.18.95-2.14 2.1-2.14.53 0 .96.2 1.26.57v-.49h.7v4.12h-.7v-.5c-.3.37-.73.57-1.26.57-1.16 0-2.1-.96-2.1-2.14v.01Zm2.13 1.47c.52 0 .99-.29 1.24-.74v-1.46c-.25-.45-.72-.74-1.24-.74-.79 0-1.43.66-1.43 1.47 0 .81.64 1.47 1.43 1.47ZM178.14 321.48h-1.38v-.66h3.45v.66h-1.37v3.46h-.7v-3.46ZM181.02 320.83h.7v3.03l2.08-3.03h.74v4.12h-.7v-3.08l-2.12 3.08h-.7v-4.12ZM185.54 321.97v-1.15h.7v1.1c0 .6.33.91.98.91.29 0 .64-.08.96-.19v-1.82h.7v4.12h-.7v-1.64c-.34.12-.71.19-1.05.19-.99 0-1.59-.58-1.59-1.53v.01ZM192.98 323.21h-2.1v1.74h-.7v-4.12h.7v1.72h2.1v-1.72h.7v4.12h-.7v-1.74ZM195 320.83h.7v1.45h1.37c.77 0 1.37.58 1.37 1.34 0 .76-.6 1.34-1.37 1.34H195v-4.13Zm2 3.46c.44 0 .74-.27.74-.67s-.3-.67-.74-.67h-1.3v1.35h1.3v-.01Zm2.13-3.46h.7v4.12h-.7v-4.12ZM201.14 320.83h.7v3.03l2.08-3.03h.74v4.12h-.7v-3.08l-2.12 3.08h-.7v-4.12Zm1-2.29c.08.42.35.66.76.66.41 0 .68-.24.76-.66h.66c-.09.77-.62 1.25-1.41 1.25-.79 0-1.32-.48-1.41-1.25h.66-.02ZM208.5 318.72h.72v6.23h-.72v-6.23ZM210.87 318.72h2.76c1.08 0 1.89.78 1.89 1.81s-.81 1.81-1.89 1.81h-2.04v2.61h-.72v-6.23Zm2.75 2.92c.68 0 1.17-.46 1.17-1.11 0-.65-.48-1.1-1.17-1.1h-2.03v2.22h2.03v-.01ZM220.39 82.08h.7v.44c.27-.33.67-.52 1.13-.52.54 0 1.02.27 1.33.69.3-.43.79-.69 1.38-.69 1 0 1.79.79 1.79 1.8v2.4h-.7v-2.4c0-.62-.48-1.13-1.09-1.13-.49 0-.91.33-1.05.79.02.11.02.22.02.33v2.41h-.7v-2.41c0-.62-.49-1.12-1.1-1.12-.46 0-.86.28-1.02.68v2.85h-.7v-4.12h.01ZM227.97 82.08h.7v.6c.32-.4.85-.65 1.44-.65h.02l.08.7h-.03c-.75 0-1.31.34-1.52.89v2.59h-.7v-4.12l.01-.01ZM232.68 82.67c-.46 0-.86.28-1.02.68v2.85h-.7v-4.12h.7v.42c.28-.32.68-.51 1.14-.51 1 0 1.68.88 1.68 1.79v2.41h-.7v-2.41c0-.62-.49-1.12-1.1-1.12v.01ZM235.44 84.14c0-1.23.88-2.14 2.02-2.14 1.14 0 2.02.92 2.02 2.05 0 .09-.02.22-.03.32h-3.29c.09.74.64 1.24 1.37 1.24.52 0 .96-.27 1.22-.7l.54.44c-.38.58-1 .92-1.73.92-1.21 0-2.12-.91-2.12-2.14v.01Zm3.33-.39c-.14-.63-.66-1.08-1.3-1.08s-1.14.44-1.28 1.08h2.59-.01ZM240.92 84.91v-2.18h-1.05v-.66h1.05v-1.3h.7v1.3h1.57v.66h-1.57v2.1c0 .48.27.77.73.77.27 0 .5-.1.71-.3l.34.54c-.28.27-.66.42-1.09.42-.83 0-1.4-.56-1.4-1.36l.01.01ZM220.39 92.06h.7v.49c.3-.37.73-.57 1.26-.57 1.16 0 2.1.96 2.1 2.14 0 1.18-.95 2.14-2.1 2.14-.53 0-.96-.2-1.26-.57v2.37h-.7v-6Zm1.94 3.53c.79 0 1.43-.66 1.43-1.47 0-.81-.64-1.47-1.43-1.47-.52 0-1 .3-1.24.76v1.43c.24.46.71.76 1.24.76v-.01ZM225.17 94.11c0-1.17.96-2.14 2.13-2.14s2.13.96 2.13 2.14c0 1.18-.96 2.15-2.13 2.15s-2.13-.97-2.13-2.15Zm2.13 1.48c.79 0 1.43-.66 1.43-1.47 0-.81-.64-1.47-1.43-1.47-.79 0-1.43.66-1.43 1.46 0 .8.64 1.48 1.43 1.48ZM231.48 95.55l-1.75-3.49h.77l1.36 2.72 1.35-2.72h.76l-2.95 5.99h-.76l1.23-2.5h-.01ZM235.53 92.72h-1.38v-.66h3.45v.66h-1.37v3.46h-.7v-3.46ZM237.97 94.12c0-1.23.88-2.14 2.02-2.14 1.14 0 2.02.92 2.02 2.05 0 .09-.02.22-.03.32h-3.29c.09.74.64 1.24 1.37 1.24.52 0 .96-.27 1.22-.7l.54.44c-.38.58-1 .92-1.73.92-1.21 0-2.12-.91-2.12-2.14v.01Zm3.32-.39c-.14-.63-.66-1.08-1.3-1.08s-1.14.44-1.28 1.08h2.59-.01ZM243.01 92.06h.7v.49c.3-.37.73-.57 1.26-.57 1.16 0 2.1.96 2.1 2.14 0 1.18-.95 2.14-2.1 2.14-.53 0-.96-.2-1.26-.57v2.37h-.7v-6Zm1.94 3.53c.79 0 1.43-.66 1.43-1.47 0-.81-.64-1.47-1.43-1.47-.52 0-1 .3-1.24.76v1.43c.24.46.71.76 1.24.76v-.01ZM162.86 50.63h3.17v.71h-3.89v-6.23h.72v5.53-.01ZM168.89 45.11h.76l2.68 6.23h-.77l-.87-2.03h-2.83l-.87 2.03h-.76l2.68-6.23h-.02Zm1.5 3.5-1.11-2.58-1.11 2.58h2.23-.01ZM173.19 45.11h.87l3.62 5.2v-5.2h.72v6.23h-.89l-3.61-5.19v5.19h-.72v-6.23h.01ZM182.25 47.22h.7v3.03l2.08-3.03h.74v4.12h-.7v-3.08l-2.12 3.08h-.7v-4.12ZM186.62 50.72c.52 0 .74-.37.81-1.35l.15-2.15h3.02v4.12h-.7v-3.47h-1.68l-.1 1.47c-.11 1.46-.52 2.07-1.42 2.07h-.03l-.08-.69h.03ZM191.91 47.22h.7v3.03l2.08-3.03h.74v4.12h-.7v-3.08l-2.12 3.08h-.7v-4.12ZM198.3 45.11h.76l1.85 5.17 1.73-5.17h.77l1.74 5.17 1.85-5.17h.76l-2.24 6.23h-.77l-1.72-5.15-1.71 5.15h-.77l-2.25-6.23ZM208.88 45.07c.27 0 .5.22.5.5s-.22.5-.5.5-.51-.22-.51-.5.23-.5.51-.5Zm-.36 2.14h.7v4.12h-.7v-4.12ZM210.45 48.45h2.45v.67h-2.45v-.67ZM214.21 45.11h4.06v.71h-3.34v2.05h2.83v.71h-2.83v2.77h-.72v-6.24ZM219.52 45.07c.27 0 .5.22.5.5s-.22.5-.5.5-.51-.22-.51-.5.23-.5.51-.5Zm-.36 2.14h.7v4.12h-.7v-4.12Z"/><path stroke="#00E4F0" stroke-miterlimit="10" stroke-width=".5" d="m183.57 106.43-27.87 16.53"/><path fill="#00E4F0" d="m182.521 105.46 2.739-.03-1.339 2.39-1.4-2.36ZM155.35 121.58l-1.34 2.39 2.74-.03-1.4-2.36Z"/><path stroke="#00E4F0" stroke-miterlimit="10" stroke-width=".5" d="m155.5 106.12-53.13 17.24"/><path fill="#00E4F0" d="m154.69 104.94 2.68.57-1.83 2.04-.85-2.61ZM102.33 121.93l-1.84 2.04 2.68.57-.84-2.61Z"/><path stroke="#00E4F0" stroke-miterlimit="10" stroke-width=".5" d="m201.291 106.56 23.36 16.28"/><path fill="#00E4F0" d="m200.83 107.91-1.16-2.48 2.73.23-1.57 2.25ZM223.541 123.74l2.73.23-1.17-2.48-1.56 2.25Z"/><path stroke="#00E4F0" stroke-miterlimit="10" stroke-width=".5" d="m227.11 106.12 53.12 17.24"/><path fill="#00E4F0" d="m227.07 107.55-1.84-2.04 2.68-.57-.84 2.61ZM279.431 124.54l2.68-.57-1.83-2.04-.85 2.61Z"/><path stroke="#00E4F0" stroke-miterlimit="10" stroke-width=".5" d="m183.55 254.06-27.87-16.53"/><path fill="#00E4F0" d="m183.9 252.68 1.35 2.39-2.75-.03 1.4-2.36ZM156.73 236.56l-2.74-.04 1.34 2.39 1.4-2.35Z"/><path stroke="#00E4F0" stroke-miterlimit="10" stroke-width=".5" d="m155.48 254.37-53.13-17.24"/><path fill="#00E4F0" d="m155.52 252.95 1.83 2.03-2.68.57.85-2.6ZM103.15 235.95l-2.68.57 1.84 2.04.84-2.61Z"/><path stroke="#00E4F0" stroke-miterlimit="10" stroke-width=".5" d="M201.64 253.94 225 237.65"/><path fill="#00E4F0" d="m202.75 254.83-2.73.24 1.16-2.49 1.57 2.25ZM225.46 239.01l1.16-2.49-2.73.24 1.57 2.25Z"/><path stroke="#00E4F0" stroke-miterlimit="10" stroke-width=".5" d="m227.46 254.37 53.13-17.24"/><path fill="#00E4F0" d="m228.26 255.55-2.68-.57 1.84-2.03.84 2.6ZM280.63 238.56l1.83-2.04-2.68-.57.85 2.61Z"/><path fill="#fff" d="M79.42 171.83h.44l.77 1.9.77-1.9h.44l.34 2.49h-.42l-.24-1.74-.71 1.74h-.37l-.71-1.74-.24 1.74h-.42l.34-2.49h.01ZM82.64 173.07c0-.71.58-1.29 1.28-1.29a1.291 1.291 0 0 1 0 2.58c-.7 0-1.28-.58-1.28-1.29Zm1.28.89c.48 0 .86-.4.86-.89s-.39-.89-.86-.89-.86.4-.86.88.39.89.86.89v.01ZM85.74 172.96v-.44c0-1.24.38-1.79 1.32-1.96.34-.06.67-.13.99-.21l.08.41c-.31.08-.65.15-.97.21-.73.14-.98.45-1 1.31.21-.29.52-.45.9-.45.7 0 1.24.55 1.24 1.26s-.57 1.27-1.28 1.27c-.75 0-1.29-.59-1.29-1.41l.01.01Zm1.29 1.01c.48 0 .86-.39.86-.87s-.38-.86-.85-.86c-.37 0-.71.23-.87.59v.21c0 .53.38.93.87.93h-.01ZM88.92 171.83h.42v1.82l1.25-1.82h.45v2.49h-.42v-1.85l-1.28 1.85h-.42v-2.49ZM91.56 173.95c.31 0 .45-.23.49-.82l.09-1.3h1.82v2.49h-.42v-2.09h-1.01l-.06.89c-.06.88-.32 1.25-.86 1.25h-.02l-.04-.42h.02-.01ZM94.75 171.83h.42v.87H96c.47 0 .83.35.83.81 0 .46-.36.81-.83.81h-1.25v-2.49Zm1.21 2.09c.27 0 .45-.16.45-.41 0-.25-.18-.41-.45-.41h-.79v.81h.79v.01ZM99.06 173.27h-1.27v1.05h-.42v-2.49h.42v1.04h1.27v-1.04h.42v2.49h-.42v-1.05ZM100.09 173.08c0-.71.57-1.29 1.27-1.29.32 0 .58.12.76.35v-.3h.42v2.49h-.42v-.3c-.18.23-.44.35-.76.35-.7 0-1.27-.58-1.27-1.29v-.01Zm1.28.89c.31 0 .6-.18.75-.45v-.88a.871.871 0 0 0-.75-.45c-.48 0-.86.4-.86.89s.39.89.86.89ZM104.87 173.4h-.45l-.81.92h-.54l.82-.93c-.4-.06-.69-.37-.69-.78 0-.45.35-.78.82-.78h1.27v2.49h-.42v-.92Zm-.81-.4h.81v-.77h-.81c-.27 0-.44.16-.44.39s.17.39.44.39V173ZM107.33 173.07c0-.71.58-1.29 1.27-1.29.52 0 .97.32 1.16.77l-.38.19a.84.84 0 0 0-.78-.55c-.47 0-.85.4-.85.88s.38.89.85.89c.36 0 .66-.23.79-.56l.38.19c-.2.46-.65.78-1.16.78-.7 0-1.27-.58-1.27-1.29l-.01-.01ZM110.16 173.08c0-.74.53-1.29 1.22-1.29s1.22.56 1.22 1.24c0 .06 0 .13-.02.2h-1.99c.06.45.39.75.83.75.32 0 .58-.16.74-.42l.33.27c-.23.35-.6.56-1.04.56-.73 0-1.28-.55-1.28-1.29l-.01-.02Zm2.01-.24c-.09-.38-.4-.65-.79-.65s-.69.27-.77.65h1.56ZM113.65 172.23h-.83v-.4h2.08v.4h-.83v2.09h-.42v-2.09ZM115.38 171.83h.42v.87h.83c.47 0 .83.35.83.81 0 .46-.36.81-.83.81h-1.25v-2.49Zm1.21 2.09c.27 0 .45-.16.45-.41 0-.25-.18-.41-.45-.41h-.79v.81h.79v.01Z"/><path fill="#00E4F0" d="m78.07 182.46 2.02-1.96c.44-.43.61-.73.61-1.07 0-.52-.41-.91-.93-.91-.59 0-.99.42-1.05 1.11l-.89-.16c.1-1.11.85-1.85 1.92-1.85 1.07 0 1.89.74 1.89 1.77 0 .63-.27 1.12-.95 1.77l-1.35 1.29h2.4v.89h-3.68v-.89l.01.01ZM82.58 181.42v-1.79c0-1.13.88-2.01 2.01-2.01s2.01.87 2.01 2.01v1.79c0 1.13-.87 2.01-2.01 2.01-1.14 0-2.01-.88-2.01-2.01Zm2.01 1.12c.62 0 1.08-.48 1.08-1.1v-1.84c0-.62-.46-1.1-1.08-1.1-.62 0-1.08.47-1.08 1.1v1.84c0 .62.47 1.1 1.08 1.1ZM90.23 177.71h.97l1.71 4.32 1.71-4.32h.98l.75 5.64h-.92l-.53-3.93-1.56 3.93h-.86l-1.56-3.92-.53 3.92h-.93l.76-5.64h.01ZM97.04 181.24v-.61c0-1.85.64-2.76 2.08-2.96.52-.07 1.01-.17 1.49-.28l.14.85c-.48.11-.99.21-1.48.28-.95.14-1.32.58-1.36 1.64.3-.37.73-.57 1.26-.57 1.05 0 1.86.83 1.86 1.9 0 1.07-.87 1.95-1.99 1.95s-1.99-.92-1.99-2.2h-.01Zm1.99 1.35c.61 0 1.1-.49 1.1-1.11 0-.62-.48-1.09-1.08-1.09-.47 0-.91.29-1.12.74v.27c0 .67.48 1.18 1.11 1.18l-.01.01ZM101.8 179.56h.89v2.41l1.56-2.41h.93v3.79h-.89v-2.47l-1.61 2.47h-.89v-3.79h.01ZM106.98 180.4h-1.17v-.84h3.23v.84h-1.17v2.95h-.89v-2.95ZM114.19 176.66h1.08l-5.46 7.8h-1.08l5.46-7.8ZM114.79 181.45c0-1.08.9-1.97 1.98-1.97.81 0 1.51.5 1.81 1.22l-.79.38c-.15-.44-.55-.74-1.02-.74-.6 0-1.09.51-1.09 1.12 0 .61.5 1.14 1.09 1.14.47 0 .86-.31 1.02-.76l.79.38a1.94 1.94 0 0 1-1.81 1.23c-1.08 0-1.98-.89-1.98-1.99v-.01Z"/><path fill="#fff" d="M98.33 148.11H94.8v3.53h3.53v-3.53ZM103.61 148.11h-3.53v3.53h3.53v-3.53Z"/><path fill="#fff" d="M108.91 141.05c0-.47-.19-.92-.52-1.25l-7.07-7.05c-.32-.32-.74-.5-1.19-.51h-8.92c-.95.03-1.71.81-1.71 1.76v19.4h3.51v3.53h14.12c.98 0 1.77-.79 1.77-1.77v-14.11h.01Zm-3.53 12.34H93.04v-17.63h6.31l6.02 6.01v2.8h.01v8.83-.01ZM99.09 197.53c-3.93 0-7.61 1.4-10.48 3.81l2.41 2.55c2.39-1.94 4.85-3.06 8.07-3.06 3.22 0 5.56 1.26 7.94 3.21l2.43-2.56c-2.77-2.62-6.44-3.95-10.37-3.95Z"/><path fill="#fff" d="M99.03 207.54c1.46 0 2.57.27 3.73 1.04l2.14-2.26a9.812 9.812 0 0 0-11.73-.01l2.13 2.26c1.15-.77 2.27-1.04 3.72-1.04l.01.01ZM103.92 225.63h-.18l-3.21-15.08-3.2.02-3.04 15.06h-2.72v3.31h14.94v-3.31h-2.59Zm-3.52 0h-2.78l1.35-6.7 1.43 6.7Z"/><path stroke="#00E4F0" stroke-miterlimit="10" stroke-width=".5" d="M99.04 169.28v-7.63"/><path fill="#00E4F0" d="m100.41 162.05-1.37-2.37-1.37 2.37h2.74Z"/><path stroke="#00E4F0" stroke-miterlimit="10" stroke-width=".5" d="M99.04 185.53v7.78"/><path fill="#00E4F0" d="m97.67 192.91 1.37 2.38 1.37-2.38h-2.74Z"/><path stroke="#00E4F0" stroke-miterlimit="10" stroke-width=".5" d="M189.63 317.45v-7.63"/><path fill="#00E4F0" d="m191 310.22-1.37-2.37-1.37 2.37H191Z"/><path stroke="#00E4F0" stroke-miterlimit="10" stroke-width=".5" d="M189.63 328.26v7.79"/><path fill="#00E4F0" d="m188.26 335.65 1.37 2.37 1.37-2.37h-2.74Z"/><path fill="#fff" d="M140.08 171.83h.44l.77 1.9.77-1.9h.44l.34 2.49h-.42l-.24-1.74-.71 1.74h-.37l-.71-1.74-.24 1.74h-.42l.34-2.49h.01ZM143.3 173.07c0-.71.58-1.29 1.28-1.29a1.291 1.291 0 0 1 0 2.58c-.7 0-1.28-.58-1.28-1.29Zm1.28.89c.48 0 .86-.4.86-.89s-.39-.89-.86-.89-.86.4-.86.88.39.89.86.89v.01ZM146.4 172.96v-.44c0-1.24.38-1.79 1.32-1.96.34-.06.67-.13.99-.21l.08.41c-.31.08-.65.15-.97.21-.73.14-.98.45-1 1.31.21-.29.52-.45.9-.45.7 0 1.24.55 1.24 1.26s-.57 1.27-1.28 1.27c-.75 0-1.29-.59-1.29-1.41l.01.01Zm1.29 1.01c.48 0 .86-.39.86-.87s-.38-.86-.85-.86c-.37 0-.71.23-.87.59v.21c0 .53.38.93.87.93h-.01ZM149.58 171.83h.42v1.82l1.25-1.82h.45v2.49h-.42v-1.85l-1.28 1.85h-.42v-2.49ZM152.22 173.95c.31 0 .45-.23.49-.82l.09-1.3h1.82v2.49h-.42v-2.09h-1.01l-.06.89c-.06.88-.32 1.25-.86 1.25h-.02l-.04-.42h.02-.01ZM155.41 171.83h.42v.87h.83c.47 0 .83.35.83.81 0 .46-.36.81-.83.81h-1.25v-2.49Zm1.21 2.09c.27 0 .45-.16.45-.41 0-.25-.18-.41-.45-.41h-.79v.81h.79v.01ZM159.72 173.27h-1.27v1.05h-.42v-2.49h.42v1.04h1.27v-1.04h.42v2.49h-.42v-1.05ZM160.75 173.08c0-.71.57-1.29 1.27-1.29.32 0 .58.12.76.35v-.3h.42v2.49h-.42v-.3c-.18.23-.44.35-.76.35-.7 0-1.27-.58-1.27-1.29v-.01Zm1.28.89c.31 0 .6-.18.75-.45v-.88a.871.871 0 0 0-.75-.45c-.48 0-.86.4-.86.89s.39.89.86.89ZM165.53 173.4h-.45l-.81.92h-.54l.82-.93c-.4-.06-.69-.37-.69-.78 0-.45.35-.78.82-.78h1.27v2.49h-.42v-.92Zm-.81-.4h.81v-.77h-.81c-.27 0-.44.16-.44.39s.17.39.44.39V173ZM167.99 173.07c0-.71.58-1.29 1.27-1.29.52 0 .97.32 1.16.77l-.38.19a.83.83 0 0 0-.78-.55c-.47 0-.85.4-.85.88s.38.89.85.89c.36 0 .66-.23.79-.56l.38.19c-.19.46-.65.78-1.16.78-.7 0-1.27-.58-1.27-1.29l-.01-.01ZM170.82 173.08c0-.74.53-1.29 1.22-1.29s1.22.56 1.22 1.24c0 .06 0 .13-.02.2h-1.99c.06.45.39.75.83.75.32 0 .58-.16.74-.42l.33.27c-.23.35-.6.56-1.04.56-.73 0-1.28-.55-1.28-1.29l-.01-.02Zm2-.24a.803.803 0 0 0-.79-.65c-.39 0-.69.27-.77.65h1.56ZM174.31 172.23h-.83v-.4h2.08v.4h-.83v2.09h-.42v-2.09ZM176.04 171.83h.42v.87h.83c.47 0 .83.35.83.81 0 .46-.36.81-.83.81h-1.25v-2.49Zm1.21 2.09c.27 0 .45-.16.45-.41 0-.25-.18-.41-.45-.41h-.79v.81h.79v.01Z"/><path fill="#00E4F0" d="M140.64 179.28h-1.29v-.9h1c.21 0 .32-.11.32-.31v-.37h.92v5.64h-.94v-4.07l-.01.01ZM142.57 182.02l.84-.31c.13.5.54.84 1.06.84.6 0 1.08-.45 1.08-1.04 0-.59-.47-1.05-1.08-1.05-.38 0-.71.17-.9.48l-.77-.25v-2.99h3.43v.89h-2.53v1.24c.27-.14.57-.22.88-.22 1.01 0 1.88.87 1.88 1.9 0 1.03-.89 1.91-1.99 1.91-.9 0-1.67-.61-1.9-1.41v.01ZM149.96 177.71h.97l1.71 4.32 1.71-4.32h.98l.75 5.64h-.92l-.53-3.93-1.56 3.93h-.86l-1.56-3.92-.53 3.92h-.93l.76-5.64h.01ZM156.77 181.24v-.61c0-1.85.64-2.76 2.08-2.96.52-.07 1.01-.17 1.49-.28l.14.85c-.48.11-.99.21-1.48.28-.95.14-1.32.58-1.36 1.64.3-.37.73-.57 1.26-.57 1.05 0 1.86.83 1.86 1.9 0 1.07-.87 1.95-1.99 1.95s-1.99-.92-1.99-2.2h-.01Zm1.99 1.35c.61 0 1.1-.49 1.1-1.11 0-.62-.48-1.09-1.08-1.09-.47 0-.91.29-1.12.74v.27c0 .67.48 1.18 1.11 1.18l-.01.01ZM161.53 179.56h.89v2.41l1.57-2.41h.93v3.79h-.89v-2.47l-1.61 2.47h-.89v-3.79ZM166.71 180.4h-1.17v-.84h3.23v.84h-1.17v2.95h-.89v-2.95ZM173.92 176.66H175l-5.46 7.8h-1.08l5.46-7.8ZM174.52 181.45c0-1.08.9-1.97 1.98-1.97.81 0 1.51.5 1.81 1.22l-.79.38c-.15-.44-.55-.74-1.02-.74-.6 0-1.09.51-1.09 1.12 0 .61.5 1.14 1.09 1.14.47 0 .86-.31 1.02-.76l.79.38a1.94 1.94 0 0 1-1.81 1.23c-1.08 0-1.98-.89-1.98-1.99v-.01Z"/><path fill="#fff" d="M158.55 148.18h-3.52v3.52h3.52v-3.52ZM163.81 148.18h-3.52v3.52h3.52v-3.52Z"/><path fill="#fff" d="M169.1 141.15c0-.47-.19-.92-.52-1.25l-7.05-7.03c-.32-.32-.74-.5-1.18-.51h-8.89c-.95.03-1.7.8-1.7 1.76v19.33h3.5v3.52h14.08c.97 0 1.76-.79 1.76-1.76v-14.06Zm-3.52 12.3h-12.3v-17.57h6.29l6 5.99v2.79h.01v8.8-.01ZM159.48 197.55c-3.92 0-7.6 1.4-10.47 3.81l2.41 2.55c2.38-1.94 4.84-3.06 8.06-3.06 3.22 0 5.55 1.26 7.94 3.2l2.42-2.56c-2.77-2.62-6.44-3.95-10.36-3.95v.01Z"/><path fill="#fff" d="M159.42 207.56c1.46 0 2.57.27 3.73 1.04l2.14-2.26a9.782 9.782 0 0 0-11.71-.01l2.13 2.26c1.15-.77 2.27-1.03 3.72-1.03h-.01ZM164.3 225.63h-.18l-3.2-15.06-3.19.02-3.04 15.05h-2.72v3.31h14.93v-3.31h-2.59l-.01-.01Zm-3.52 0H158l1.35-6.69 1.42 6.69h.01Z"/><path stroke="#00E4F0" stroke-miterlimit="10" stroke-width=".5" d="M159.29 161.65v7.63"/><path fill="#00E4F0" d="m157.92 162.05 1.37-2.37 1.37 2.37h-2.74Z"/><path stroke="#00E4F0" stroke-miterlimit="10" stroke-width=".5" d="M159.29 185.53v7.78"/><path fill="#00E4F0" d="m157.92 192.91 1.37 2.38 1.37-2.38h-2.74Z"/><path fill="#fff" d="M199.65 171.83h.44l.77 1.9.77-1.9h.44l.34 2.49h-.42l-.24-1.74-.71 1.74h-.37l-.71-1.74-.24 1.74h-.42l.34-2.49h.01ZM202.87 173.07c0-.71.58-1.29 1.28-1.29a1.291 1.291 0 0 1 0 2.58c-.7 0-1.28-.58-1.28-1.29Zm1.28.89c.48 0 .86-.4.86-.89s-.39-.89-.86-.89-.86.4-.86.88.39.89.86.89v.01ZM205.97 172.96v-.44c0-1.24.38-1.79 1.32-1.96.34-.06.67-.13.99-.21l.07.41c-.31.08-.65.15-.97.21-.73.14-.98.45-1 1.31.2-.29.52-.45.9-.45.7 0 1.24.55 1.24 1.26s-.57 1.27-1.28 1.27c-.75 0-1.29-.59-1.29-1.41l.02.01Zm1.29 1.01c.48 0 .86-.39.86-.87s-.38-.86-.85-.86c-.37 0-.71.23-.87.59v.21c0 .53.38.93.87.93h-.01ZM209.16 171.83h.42v1.82l1.25-1.82h.45v2.49h-.42v-1.85l-1.28 1.85h-.42v-2.49ZM211.79 173.95c.31 0 .45-.23.49-.82l.09-1.3h1.82v2.49h-.42v-2.09h-1.01l-.06.89c-.06.88-.32 1.25-.86 1.25h-.02l-.05-.42h.02ZM214.98 171.83h.42v.87h.83c.47 0 .83.35.83.81 0 .46-.36.81-.83.81h-1.25v-2.49Zm1.21 2.09c.27 0 .45-.16.45-.41 0-.25-.18-.41-.45-.41h-.79v.81h.79v.01ZM219.29 173.27h-1.27v1.05h-.42v-2.49h.42v1.04h1.27v-1.04h.42v2.49h-.42v-1.05ZM220.32 173.08c0-.71.57-1.29 1.27-1.29.32 0 .58.12.76.35v-.3h.42v2.49h-.42v-.3c-.18.23-.44.35-.76.35-.7 0-1.27-.58-1.27-1.29v-.01Zm1.28.89c.31 0 .6-.18.75-.45v-.88a.871.871 0 0 0-.75-.45c-.48 0-.86.4-.86.89s.39.89.86.89ZM225.1 173.4h-.45l-.81.92h-.54l.82-.93c-.4-.06-.69-.37-.69-.78 0-.45.35-.78.82-.78h1.27v2.49h-.42v-.92Zm-.81-.4h.81v-.77h-.81c-.27 0-.44.16-.44.39s.17.39.44.39V173ZM227.57 173.07c0-.71.58-1.29 1.27-1.29.52 0 .97.32 1.16.77l-.38.19a.84.84 0 0 0-.78-.55c-.47 0-.85.4-.85.88s.38.89.85.89c.36 0 .66-.23.79-.56l.38.19c-.2.46-.65.78-1.16.78-.7 0-1.27-.58-1.27-1.29l-.01-.01ZM230.39 173.08c0-.74.53-1.29 1.22-1.29s1.22.56 1.22 1.24c0 .06 0 .13-.02.2h-1.99c.06.45.39.75.83.75.32 0 .58-.16.74-.42l.33.27c-.23.35-.6.56-1.04.56-.73 0-1.28-.55-1.28-1.29l-.01-.02Zm2.01-.24c-.09-.38-.4-.65-.79-.65s-.69.27-.77.65h1.56ZM233.88 172.23h-.83v-.4h2.08v.4h-.83v2.09h-.42v-2.09ZM235.62 171.83h.42v.87h.83c.47 0 .83.35.83.81 0 .46-.36.81-.83.81h-1.25v-2.49Zm1.21 2.09c.27 0 .45-.16.45-.41 0-.25-.18-.41-.45-.41h-.79v.81h.79v.01Z"/><path fill="#00E4F0" d="m200.61 182.02.84-.31c.13.5.54.84 1.06.84.6 0 1.08-.45 1.08-1.04 0-.59-.47-1.05-1.08-1.05-.38 0-.71.17-.9.48l-.77-.25v-2.99h3.43v.89h-2.53v1.24c.27-.14.57-.22.88-.22 1.01 0 1.88.87 1.88 1.9 0 1.03-.89 1.91-1.99 1.91-.9 0-1.67-.61-1.9-1.41v.01ZM208 177.71h.97l1.71 4.32 1.71-4.32h.98l.75 5.64h-.92l-.53-3.93-1.56 3.93h-.86l-1.56-3.92-.53 3.92h-.92l.76-5.64ZM214.8 181.24v-.61c0-1.85.64-2.76 2.08-2.96.52-.07 1.01-.17 1.49-.28l.14.85c-.48.11-.99.21-1.48.28-.95.14-1.32.58-1.36 1.64.3-.37.73-.57 1.26-.57 1.04 0 1.86.83 1.86 1.9 0 1.07-.87 1.95-1.99 1.95s-1.99-.92-1.99-2.2h-.01Zm1.99 1.35c.61 0 1.1-.49 1.1-1.11 0-.62-.48-1.09-1.08-1.09-.47 0-.91.29-1.12.74v.27c0 .67.48 1.18 1.1 1.18v.01ZM219.57 179.56h.89v2.41l1.56-2.41h.93v3.79h-.89v-2.47l-1.61 2.47h-.89v-3.79h.01ZM224.75 180.4h-1.17v-.84h3.23v.84h-1.17v2.95h-.89v-2.95ZM231.96 176.66h1.08l-5.46 7.8h-1.08l5.46-7.8ZM232.55 181.45c0-1.08.9-1.97 1.98-1.97.81 0 1.51.5 1.81 1.22l-.79.38c-.15-.44-.55-.74-1.02-.74-.6 0-1.09.51-1.09 1.12 0 .61.5 1.14 1.09 1.14.47 0 .86-.31 1.02-.76l.79.38a1.94 1.94 0 0 1-1.81 1.23c-1.08 0-1.98-.89-1.98-1.99v-.01Z"/><path fill="#fff" d="M218.45 148.19h-3.51v3.51h3.51v-3.51ZM223.7 148.19h-3.51v3.51h3.51v-3.51Z"/><path fill="#fff" d="M228.99 141.16c0-.47-.19-.91-.52-1.24l-7.04-7.03c-.32-.31-.74-.5-1.18-.51h-8.88c-.94.03-1.7.8-1.7 1.76v19.32h3.5v3.51h14.07c.97 0 1.76-.79 1.76-1.76v-14.05h-.01Zm-3.52 12.29h-12.29v-17.56h6.28l6 5.98v2.79h.01v8.79ZM219.38 197.52c-3.93 0-7.61 1.4-10.48 3.81l2.41 2.55c2.39-1.94 4.85-3.06 8.07-3.06 3.22 0 5.56 1.26 7.95 3.21l2.43-2.56c-2.77-2.62-6.44-3.95-10.37-3.95h-.01Z"/><path fill="#fff" d="M219.32 207.54c1.46 0 2.57.27 3.73 1.04l2.14-2.26a9.812 9.812 0 0 0-11.73-.01l2.13 2.26c1.15-.77 2.27-1.04 3.72-1.04l.01.01ZM224.21 225.62h-.18l-3.21-15.08-3.2.02-3.05 15.06h-2.72v3.31h14.94v-3.31h-2.59.01Zm-3.52 0h-2.78l1.35-6.7 1.43 6.7Z"/><path stroke="#00E4F0" stroke-miterlimit="10" stroke-width=".5" d="M219.33 161.65v7.63"/><path fill="#00E4F0" d="m217.96 162.05 1.37-2.37 1.37 2.37h-2.74Z"/><path stroke="#00E4F0" stroke-miterlimit="10" stroke-width=".5" d="M219.33 193.31v-7.78"/><path fill="#00E4F0" d="m220.7 192.91-1.37 2.38-1.37-2.38h2.74ZM259.03 182.02l.84-.31c.13.5.54.84 1.06.84.6 0 1.08-.45 1.08-1.04 0-.59-.47-1.05-1.08-1.05-.38 0-.71.17-.9.48l-.77-.25v-2.99h3.43v.89h-2.53v1.24c.27-.14.57-.22.88-.22 1.01 0 1.88.87 1.88 1.9 0 1.03-.89 1.91-1.99 1.91-.9 0-1.67-.61-1.9-1.41v.01ZM263.71 181.42v-1.79c0-1.13.88-2.01 2.01-2.01s2.01.87 2.01 2.01v1.79c0 1.13-.87 2.01-2.01 2.01-1.14 0-2.01-.88-2.01-2.01Zm2.01 1.12c.62 0 1.08-.48 1.08-1.1v-1.84c0-.62-.46-1.1-1.08-1.1-.62 0-1.08.47-1.08 1.1v1.84c0 .62.47 1.1 1.08 1.1ZM271.36 177.71h.97l1.71 4.32 1.71-4.32h.98l.75 5.64h-.92l-.53-3.93-1.56 3.93h-.86l-1.57-3.92-.53 3.92h-.93l.76-5.64h.02ZM278.17 181.24v-.61c0-1.85.64-2.76 2.08-2.96.52-.07 1.01-.17 1.49-.28l.13.85c-.48.11-.98.21-1.48.28-.95.14-1.32.58-1.36 1.64.3-.37.73-.57 1.26-.57 1.05 0 1.86.83 1.86 1.9 0 1.07-.87 1.95-1.99 1.95s-1.99-.92-1.99-2.2Zm1.99 1.35c.61 0 1.1-.49 1.1-1.11 0-.62-.48-1.09-1.08-1.09-.47 0-.91.29-1.12.74v.27c0 .67.48 1.18 1.11 1.18l-.01.01ZM282.93 179.56h.89v2.41l1.57-2.41h.93v3.79h-.89v-2.47l-1.61 2.47h-.89v-3.79ZM288.11 180.4h-1.17v-.84h3.23v.84H289v2.95h-.89v-2.95ZM295.32 176.66h1.08l-5.46 7.8h-1.08l5.46-7.8ZM295.92 181.45c0-1.08.9-1.97 1.98-1.97.81 0 1.51.5 1.81 1.22l-.79.38c-.15-.44-.55-.74-1.02-.74-.6 0-1.09.51-1.09 1.12 0 .61.5 1.14 1.09 1.14.47 0 .86-.31 1.02-.76l.79.38a1.94 1.94 0 0 1-1.81 1.23c-1.08 0-1.98-.89-1.98-1.99v-.01Z"/><path fill="#fff" d="M284.84 139.07v-6.72h-10.07v6.71h-1.68v6.71l3.36 7.63h1.68v3.51h3.35v-3.51h1.68l3.36-7.63v-6.71h-1.68v.01Zm-3.36-3.36v3.36h-3.36v-3.36h3.36Zm-.25 14.34h-2.85l-1.93-4.28v-3.36h1.68v3.36h3.36v-3.36h1.68v3.36l-1.93 4.28h-.01ZM279.86 197.29c-3.96 0-7.67 1.41-10.56 3.84l2.43 2.57c2.4-1.95 4.88-3.08 8.13-3.08 3.25 0 5.6 1.27 8.01 3.23l2.44-2.58c-2.79-2.64-6.49-3.98-10.45-3.98Z"/><path fill="#fff" d="M279.8 207.38c1.47 0 2.59.27 3.76 1.05l2.15-2.28a9.854 9.854 0 0 0-11.81-.01l2.15 2.28c1.16-.78 2.28-1.04 3.75-1.04ZM284.73 225.6h-.18l-3.23-15.19-3.22.02-3.07 15.18h-2.74v3.34h15.05v-3.34h-2.61v-.01Zm-3.55 0h-2.8l1.36-6.75 1.44 6.75Z"/><path stroke="#00E4F0" stroke-miterlimit="10" stroke-width=".5" d="M279.81 161.65v7.63"/><path fill="#00E4F0" d="m278.44 162.05 1.37-2.37 1.37 2.37h-2.74Z"/><path stroke="gray" stroke-miterlimit="10" stroke-width=".5" d="M279.81 193.31v-7.78"/><path fill="gray" d="m281.18 192.91-1.37 2.38-1.37-2.38h2.74Z"/><path fill="url(#s)" d="M212.37 82.79h-5.45l4.43-12.17-3.43-1.25-4.88 13.41h-23.88l-4.88-13.41-3.43 1.25 4.43 12.17h-5.45v13.32h5.47v3.64h3.65v-3.64h24.31v3.64h3.65v-3.64h5.47V82.79h-.01Zm-3.65 9.67h-35.27v-6.03h35.27v6.03Z"/><path fill="url(#t)" d="m184.54 75.97 2.27 2.85c.07-.05 1.64-1.24 4.27-1.24s4.23 1.2 4.28 1.24l2.27-2.85c-.26-.21-2.66-2.03-6.56-2.03-3.9 0-6.28 1.83-6.54 2.04l.01-.01Z"/><path fill="url(#u)" d="M190.83 70.16h.32c5.78 0 9.37 3.39 9.4 3.42l2.55-2.6c-.19-.19-4.8-4.62-12.35-4.46-7.37.16-11.53 4.31-11.7 4.49l2.59 2.56c.13-.13 3.36-3.28 9.19-3.41Z"/><path fill="url(#v)" d="M203.1 87.59h-3.65v3.65h3.65v-3.65Z"/><path stroke="#00E4F0" stroke-miterlimit="10" stroke-width=".5" d="M191.04 43.81v-7.63"/><path fill="#00E4F0" d="m192.41 36.58-1.37-2.38-1.38 2.38h2.75Z"/><path stroke="#00E4F0" stroke-miterlimit="10" stroke-width=".5" d="M191.04 54.55v7.79"/><path fill="#00E4F0" d="m189.66 61.94 1.38 2.37 1.37-2.37h-2.75Z"/><path fill="#fff" d="M137.44 3.36V31.3h24.65V3.36h-24.65Zm20.48 23.76h-16.31V7.53h4.16v4.22h8V7.53h4.16v19.59h-.01ZM210.89 27.12V.45h-39.1v26.67h-4.23v2.36c0 1 .81 1.81 1.81 1.81h43.88c1 0 1.81-.81 1.81-1.81v-2.36h-4.17Zm-17.55 0v1.77h-4.17v-1.77h-13.21V4.63h30.76v22.5h-13.37l-.01-.01Z"/><path fill="#fff" d="M185.34 13.79h-4.17v4.17h4.17v-4.17ZM193.4 13.79h-4.17v4.17h4.17v-4.17ZM201.46 13.79h-4.17v4.17h4.17v-4.17ZM220.39 10.75v20.54h15.34V10.75h-15.34Zm11.34 16.54h-7.34V14.75h7.34v12.54ZM151.85 21.09h-4.17v4.17h4.17v-4.17Z"/><path fill="#fff" d="M230.15 21.69h-4.17v4.17h4.17v-4.17Z"/><path stroke="#00E4F0" stroke-miterlimit="10" stroke-width=".5" d="M69.02 50.45H64.3M68.94 145.67h-4.72M69.02 213.11H64.3M69.02 316.06H64.3"/><path fill="#fff" d="M261.07 171.84h2.08v2.48h-.42v-2.09h-1.24v2.09h-.42v-2.48ZM265.76 171.96c.2.12.35.27.46.47.11.2.17.41.17.65a1.296 1.296 0 0 1-.63 1.12c-.2.11-.41.17-.63.17-.32 0-.58-.12-.76-.35v1.43h-.42v-3.61h.42v.3c.18-.23.44-.35.76-.35.23 0 .44.06.63.18v-.01Zm-.22 1.88c.13-.08.24-.19.31-.32.08-.14.12-.28.12-.44a.83.83 0 0 0-.12-.44.866.866 0 0 0-.31-.32.821.821 0 0 0-.43-.12c-.15 0-.3.04-.44.12-.13.08-.24.19-.31.33v.86a.83.83 0 0 0 .75.45c.16 0 .3-.04.43-.12ZM267.46 174.19c-.2-.12-.35-.27-.47-.47-.12-.2-.17-.41-.17-.65a1.275 1.275 0 0 1 .64-1.11c.2-.12.41-.18.64-.18.23 0 .44.06.64.18s.35.27.47.47a1.303 1.303 0 0 1 0 1.29c-.12.2-.27.35-.47.47-.2.12-.41.18-.64.18-.23 0-.44-.06-.64-.18Zm1.07-.35c.13-.08.24-.19.31-.32s.12-.28.12-.44a.83.83 0 0 0-.12-.44.95.95 0 0 0-.31-.32.821.821 0 0 0-.43-.12c-.15 0-.3.04-.43.12-.13.08-.24.19-.31.32a.892.892 0 0 0 0 .89c.08.14.18.25.31.33.13.08.28.12.43.12.15 0 .3-.04.43-.12v-.02ZM271.99 173.29c.06.1.09.21.09.33 0 .13-.03.24-.1.35-.07.11-.15.19-.26.25a.75.75 0 0 1-.37.09h-1.36v-2.48h1.29c.13 0 .25.03.37.09a.695.695 0 0 1 .36.61c0 .11-.02.2-.07.29-.05.09-.11.16-.19.22.1.06.18.14.24.24v.01Zm-1.57-1.06v.66h.83c.1 0 .19-.03.25-.09s.09-.14.09-.24c0-.1-.03-.18-.09-.24s-.14-.09-.25-.09h-.83Zm.9 1.69c.1 0 .19-.03.25-.09s.09-.14.09-.24c0-.1-.03-.18-.09-.24s-.14-.09-.25-.09h-.9v.66h.9ZM273.16 174.19c-.2-.12-.35-.27-.47-.47-.12-.2-.17-.41-.17-.65a1.275 1.275 0 0 1 .64-1.11c.2-.12.41-.18.64-.18.23 0 .44.06.64.18s.35.27.47.47a1.303 1.303 0 0 1 0 1.29c-.12.2-.27.35-.47.47-.2.12-.41.18-.64.18-.23 0-.44-.06-.64-.18Zm1.07-.35c.13-.08.24-.19.31-.32s.12-.28.12-.44a.83.83 0 0 0-.12-.44.95.95 0 0 0-.31-.32.821.821 0 0 0-.43-.12c-.15 0-.3.04-.43.12-.13.08-.24.19-.31.32a.892.892 0 0 0 0 .89c.08.14.18.25.31.33.13.08.28.12.43.12.15 0 .3-.04.43-.12v-.02ZM277.85 173.92h.43v1.11h-.4v-.71h-2.13v.71h-.4v-1.11h.27c.09-.1.16-.22.21-.38.04-.16.08-.38.1-.68l.07-1.03h1.86v2.08l-.01.01Zm-1.52-1.02c-.02.26-.04.46-.08.62-.04.16-.09.29-.16.4h1.34v-1.69h-1.06l-.04.67ZM280.52 172.87v-1.04h.42v2.48h-.42v-1.05h-1.27v1.05h-.42v-2.48h.42v1.04h1.27ZM283.57 171.84h.42v2.48h-.42v-.3c-.18.23-.44.35-.76.35a1.239 1.239 0 0 1-1.09-.64c-.11-.2-.17-.41-.17-.65a1.296 1.296 0 0 1 .63-1.12c.19-.12.41-.18.63-.18.32 0 .58.12.76.35v-.3.01Zm-.32 2.01c.13-.08.24-.19.32-.33v-.88a.846.846 0 0 0-.32-.33.848.848 0 0 0-.43-.12c-.15 0-.3.04-.43.12-.13.08-.24.19-.31.32-.08.14-.12.28-.12.44 0 .16.04.31.12.44.08.14.18.24.31.32.13.08.28.12.43.12.15 0 .3-.04.43-.12v.02ZM286.74 171.84v2.48h-.42v-.92h-.45l-.81.92h-.54l.82-.93a.789.789 0 0 1-.5-.26.743.743 0 0 1-.19-.52.774.774 0 0 1 .4-.68c.12-.07.26-.1.42-.1h1.27v.01Zm-.42 1.17v-.77h-.81c-.13 0-.24.03-.32.1-.08.07-.12.16-.12.28 0 .12.04.21.12.28.08.07.18.1.32.1h.81v.01ZM289.41 174.19c-.2-.12-.35-.27-.47-.47-.12-.2-.17-.41-.17-.65a1.275 1.275 0 0 1 .64-1.11c.2-.12.41-.18.63-.18a1.25 1.25 0 0 1 1.16.77l-.38.19a.873.873 0 0 0-.31-.4c-.14-.1-.3-.15-.48-.15-.15 0-.29.04-.42.12a.95.95 0 0 0-.31.32.892.892 0 0 0 0 .89c.08.14.18.25.31.33.13.08.27.12.42.12.18 0 .34-.05.48-.15.14-.1.24-.24.31-.41l.38.19c-.1.23-.25.42-.46.56-.21.14-.44.21-.7.21-.23 0-.44-.06-.63-.18ZM294.01 173.22h-1.98c.03.22.12.4.27.54.15.14.34.21.56.21a.838.838 0 0 0 .74-.42l.33.27c-.12.18-.26.31-.45.41-.18.1-.38.15-.6.15-.24 0-.46-.06-.65-.17-.2-.11-.35-.27-.46-.46-.11-.2-.17-.42-.17-.66 0-.24.05-.46.16-.66s.25-.35.44-.46a1.203 1.203 0 0 1 1.67.45c.11.19.16.39.16.62 0 .04 0 .11-.02.2v-.02Zm-1.69-.85c-.14.12-.23.28-.28.47h1.56a.842.842 0 0 0-.28-.47.757.757 0 0 0-.51-.18c-.2 0-.36.06-.5.18h.01ZM294.24 171.84h2.08v.4h-.83v2.09h-.42v-2.09h-.83v-.4ZM298.05 172.71c.15 0 .29.04.42.11.12.07.22.17.3.29.08.12.11.26.11.41 0 .15-.04.29-.11.41s-.17.22-.3.29c-.12.07-.26.1-.42.1h-1.25v-2.48h.42v.87h.83Zm-.04 1.21c.13 0 .24-.04.32-.11a.37.37 0 0 0 .12-.29c0-.12-.04-.22-.12-.3a.477.477 0 0 0-.32-.11h-.79v.81h.79Z"/></g><defs><linearGradient id="b" x1="174.13" x2="214.76" y1="308.42" y2="267.79" gradientUnits="userSpaceOnUse"><stop offset=".16" stop-color="#F30"/><stop offset=".21" stop-color="#EF452D"/><stop offset=".28" stop-color="#DF595F"/><stop offset=".34" stop-color="#D26A88"/><stop offset=".4" stop-color="#C777A8"/><stop offset=".46" stop-color="#C080BF"/><stop offset=".52" stop-color="#BB86CD"/><stop offset=".57" stop-color="#BA88D2"/><stop offset=".61" stop-color="#AA8FD4"/><stop offset=".7" stop-color="#82A3DA"/><stop offset=".83" stop-color="#42C3E5"/><stop offset=".94" stop-color="#00E4F0"/></linearGradient><linearGradient id="c" x1="167.12" x2="207.72" y1="304.22" y2="263.61" gradientUnits="userSpaceOnUse"><stop offset=".16" stop-color="#F30"/><stop offset=".21" stop-color="#EF452D"/><stop offset=".28" stop-color="#DF595F"/><stop offset=".34" stop-color="#D26A88"/><stop offset=".4" stop-color="#C777A8"/><stop offset=".46" stop-color="#C080BF"/><stop offset=".52" stop-color="#BB86CD"/><stop offset=".57" stop-color="#BA88D2"/><stop offset=".61" stop-color="#AA8FD4"/><stop offset=".7" stop-color="#82A3DA"/><stop offset=".83" stop-color="#42C3E5"/><stop offset=".94" stop-color="#00E4F0"/></linearGradient><linearGradient id="d" x1="171.32" x2="211.92" y1="307.06" y2="266.45" gradientUnits="userSpaceOnUse"><stop offset=".16" stop-color="#F30"/><stop offset=".21" stop-color="#EF452D"/><stop offset=".28" stop-color="#DF595F"/><stop offset=".34" stop-color="#D26A88"/><stop offset=".4" stop-color="#C777A8"/><stop offset=".46" stop-color="#C080BF"/><stop offset=".52" stop-color="#BB86CD"/><stop offset=".57" stop-color="#BA88D2"/><stop offset=".61" stop-color="#AA8FD4"/><stop offset=".7" stop-color="#82A3DA"/><stop offset=".83" stop-color="#42C3E5"/><stop offset=".94" stop-color="#00E4F0"/></linearGradient><linearGradient id="e" x1="172.88" x2="213.49" y1="308.12" y2="267.51" gradientUnits="userSpaceOnUse"><stop offset=".16" stop-color="#F30"/><stop offset=".21" stop-color="#EF452D"/><stop offset=".28" stop-color="#DF595F"/><stop offset=".34" stop-color="#D26A88"/><stop offset=".4" stop-color="#C777A8"/><stop offset=".46" stop-color="#C080BF"/><stop offset=".52" stop-color="#BB86CD"/><stop offset=".57" stop-color="#BA88D2"/><stop offset=".61" stop-color="#AA8FD4"/><stop offset=".7" stop-color="#82A3DA"/><stop offset=".83" stop-color="#42C3E5"/><stop offset=".94" stop-color="#00E4F0"/></linearGradient><linearGradient id="f" x1="177.08" x2="217.69" y1="310.96" y2="270.35" gradientUnits="userSpaceOnUse"><stop offset=".16" stop-color="#F30"/><stop offset=".21" stop-color="#EF452D"/><stop offset=".28" stop-color="#DF595F"/><stop offset=".34" stop-color="#D26A88"/><stop offset=".4" stop-color="#C777A8"/><stop offset=".46" stop-color="#C080BF"/><stop offset=".52" stop-color="#BB86CD"/><stop offset=".57" stop-color="#BA88D2"/><stop offset=".61" stop-color="#AA8FD4"/><stop offset=".7" stop-color="#82A3DA"/><stop offset=".83" stop-color="#42C3E5"/><stop offset=".94" stop-color="#00E4F0"/></linearGradient><linearGradient id="g" x1="167.6" x2="203.01" y1="295.93" y2="260.53" gradientUnits="userSpaceOnUse"><stop offset=".16" stop-color="#F30"/><stop offset=".21" stop-color="#EF452D"/><stop offset=".28" stop-color="#DF595F"/><stop offset=".34" stop-color="#D26A88"/><stop offset=".4" stop-color="#C777A8"/><stop offset=".46" stop-color="#C080BF"/><stop offset=".52" stop-color="#BB86CD"/><stop offset=".57" stop-color="#BA88D2"/><stop offset=".61" stop-color="#AA8FD4"/><stop offset=".7" stop-color="#82A3DA"/><stop offset=".83" stop-color="#42C3E5"/><stop offset=".94" stop-color="#00E4F0"/></linearGradient><linearGradient id="h" x1="161.75" x2="197.15" y1="293.6" y2="258.2" gradientUnits="userSpaceOnUse"><stop offset=".16" stop-color="#F30"/><stop offset=".21" stop-color="#EF452D"/><stop offset=".28" stop-color="#DF595F"/><stop offset=".34" stop-color="#D26A88"/><stop offset=".4" stop-color="#C777A8"/><stop offset=".46" stop-color="#C080BF"/><stop offset=".52" stop-color="#BB86CD"/><stop offset=".57" stop-color="#BA88D2"/><stop offset=".61" stop-color="#AA8FD4"/><stop offset=".7" stop-color="#82A3DA"/><stop offset=".83" stop-color="#42C3E5"/><stop offset=".94" stop-color="#00E4F0"/></linearGradient><linearGradient id="i" x1="152.39" x2="192.99" y1="292.69" y2="252.09" gradientUnits="userSpaceOnUse"><stop offset=".16" stop-color="#F30"/><stop offset=".21" stop-color="#EF452D"/><stop offset=".28" stop-color="#DF595F"/><stop offset=".34" stop-color="#D26A88"/><stop offset=".4" stop-color="#C777A8"/><stop offset=".46" stop-color="#C080BF"/><stop offset=".52" stop-color="#BB86CD"/><stop offset=".57" stop-color="#BA88D2"/><stop offset=".61" stop-color="#AA8FD4"/><stop offset=".7" stop-color="#82A3DA"/><stop offset=".83" stop-color="#42C3E5"/><stop offset=".94" stop-color="#00E4F0"/></linearGradient><linearGradient id="j" x1="156.73" x2="197.34" y1="295.63" y2="255.03" gradientUnits="userSpaceOnUse"><stop offset=".16" stop-color="#F30"/><stop offset=".21" stop-color="#EF452D"/><stop offset=".28" stop-color="#DF595F"/><stop offset=".34" stop-color="#D26A88"/><stop offset=".4" stop-color="#C777A8"/><stop offset=".46" stop-color="#C080BF"/><stop offset=".52" stop-color="#BB86CD"/><stop offset=".57" stop-color="#BA88D2"/><stop offset=".61" stop-color="#AA8FD4"/><stop offset=".7" stop-color="#82A3DA"/><stop offset=".83" stop-color="#42C3E5"/><stop offset=".94" stop-color="#00E4F0"/></linearGradient><linearGradient id="k" x1="148.04" x2="188.64" y1="289.75" y2="249.15" gradientUnits="userSpaceOnUse"><stop offset=".16" stop-color="#F30"/><stop offset=".21" stop-color="#EF452D"/><stop offset=".28" stop-color="#DF595F"/><stop offset=".34" stop-color="#D26A88"/><stop offset=".4" stop-color="#C777A8"/><stop offset=".46" stop-color="#C080BF"/><stop offset=".52" stop-color="#BB86CD"/><stop offset=".57" stop-color="#BA88D2"/><stop offset=".61" stop-color="#AA8FD4"/><stop offset=".7" stop-color="#82A3DA"/><stop offset=".83" stop-color="#42C3E5"/><stop offset=".94" stop-color="#00E4F0"/></linearGradient><linearGradient id="l" x1="148.04" x2="188.64" y1="289.75" y2="249.15" gradientUnits="userSpaceOnUse"><stop offset=".16" stop-color="#F30"/><stop offset=".21" stop-color="#EF452D"/><stop offset=".28" stop-color="#DF595F"/><stop offset=".34" stop-color="#D26A88"/><stop offset=".4" stop-color="#C777A8"/><stop offset=".46" stop-color="#C080BF"/><stop offset=".52" stop-color="#BB86CD"/><stop offset=".57" stop-color="#BA88D2"/><stop offset=".61" stop-color="#AA8FD4"/><stop offset=".7" stop-color="#82A3DA"/><stop offset=".83" stop-color="#42C3E5"/><stop offset=".94" stop-color="#00E4F0"/></linearGradient><linearGradient id="m" x1="148.04" x2="188.64" y1="289.75" y2="249.15" gradientUnits="userSpaceOnUse"><stop offset=".16" stop-color="#F30"/><stop offset=".21" stop-color="#EF452D"/><stop offset=".28" stop-color="#DF595F"/><stop offset=".34" stop-color="#D26A88"/><stop offset=".4" stop-color="#C777A8"/><stop offset=".46" stop-color="#C080BF"/><stop offset=".52" stop-color="#BB86CD"/><stop offset=".57" stop-color="#BA88D2"/><stop offset=".61" stop-color="#AA8FD4"/><stop offset=".7" stop-color="#82A3DA"/><stop offset=".83" stop-color="#42C3E5"/><stop offset=".94" stop-color="#00E4F0"/></linearGradient><linearGradient id="n" x1="172.61" x2="213.21" y1="306.38" y2="265.77" gradientUnits="userSpaceOnUse"><stop offset=".16" stop-color="#F30"/><stop offset=".21" stop-color="#EF452D"/><stop offset=".28" stop-color="#DF595F"/><stop offset=".34" stop-color="#D26A88"/><stop offset=".4" stop-color="#C777A8"/><stop offset=".46" stop-color="#C080BF"/><stop offset=".52" stop-color="#BB86CD"/><stop offset=".57" stop-color="#BA88D2"/><stop offset=".61" stop-color="#AA8FD4"/><stop offset=".7" stop-color="#82A3DA"/><stop offset=".83" stop-color="#42C3E5"/><stop offset=".94" stop-color="#00E4F0"/></linearGradient><linearGradient id="o" x1="172.61" x2="213.21" y1="306.38" y2="265.77" gradientUnits="userSpaceOnUse"><stop offset=".16" stop-color="#F30"/><stop offset=".21" stop-color="#EF452D"/><stop offset=".28" stop-color="#DF595F"/><stop offset=".34" stop-color="#D26A88"/><stop offset=".4" stop-color="#C777A8"/><stop offset=".46" stop-color="#C080BF"/><stop offset=".52" stop-color="#BB86CD"/><stop offset=".57" stop-color="#BA88D2"/><stop offset=".61" stop-color="#AA8FD4"/><stop offset=".7" stop-color="#82A3DA"/><stop offset=".83" stop-color="#42C3E5"/><stop offset=".94" stop-color="#00E4F0"/></linearGradient><linearGradient id="p" x1="172.61" x2="213.21" y1="306.38" y2="265.77" gradientUnits="userSpaceOnUse"><stop offset=".16" stop-color="#F30"/><stop offset=".21" stop-color="#EF452D"/><stop offset=".28" stop-color="#DF595F"/><stop offset=".34" stop-color="#D26A88"/><stop offset=".4" stop-color="#C777A8"/><stop offset=".46" stop-color="#C080BF"/><stop offset=".52" stop-color="#BB86CD"/><stop offset=".57" stop-color="#BA88D2"/><stop offset=".61" stop-color="#AA8FD4"/><stop offset=".7" stop-color="#82A3DA"/><stop offset=".83" stop-color="#42C3E5"/><stop offset=".94" stop-color="#00E4F0"/></linearGradient><linearGradient id="q" x1="168.26" x2="208.86" y1="303.43" y2="262.83" gradientUnits="userSpaceOnUse"><stop offset=".16" stop-color="#F30"/><stop offset=".21" stop-color="#EF452D"/><stop offset=".28" stop-color="#DF595F"/><stop offset=".34" stop-color="#D26A88"/><stop offset=".4" stop-color="#C777A8"/><stop offset=".46" stop-color="#C080BF"/><stop offset=".52" stop-color="#BB86CD"/><stop offset=".57" stop-color="#BA88D2"/><stop offset=".61" stop-color="#AA8FD4"/><stop offset=".7" stop-color="#82A3DA"/><stop offset=".83" stop-color="#42C3E5"/><stop offset=".94" stop-color="#00E4F0"/></linearGradient><linearGradient id="r" x1="163.91" x2="204.52" y1="300.49" y2="259.89" gradientUnits="userSpaceOnUse"><stop offset=".16" stop-color="#F30"/><stop offset=".21" stop-color="#EF452D"/><stop offset=".28" stop-color="#DF595F"/><stop offset=".34" stop-color="#D26A88"/><stop offset=".4" stop-color="#C777A8"/><stop offset=".46" stop-color="#C080BF"/><stop offset=".52" stop-color="#BB86CD"/><stop offset=".57" stop-color="#BA88D2"/><stop offset=".61" stop-color="#AA8FD4"/><stop offset=".7" stop-color="#82A3DA"/><stop offset=".83" stop-color="#42C3E5"/><stop offset=".94" stop-color="#00E4F0"/></linearGradient><linearGradient id="s" x1="176.48" x2="204.21" y1="98.48" y2="70.76" gradientUnits="userSpaceOnUse"><stop offset=".16" stop-color="#F30"/><stop offset=".21" stop-color="#EF452D"/><stop offset=".28" stop-color="#DF595F"/><stop offset=".34" stop-color="#D26A88"/><stop offset=".4" stop-color="#C777A8"/><stop offset=".46" stop-color="#C080BF"/><stop offset=".52" stop-color="#BB86CD"/><stop offset=".57" stop-color="#BA88D2"/><stop offset=".61" stop-color="#AA8FD4"/><stop offset=".7" stop-color="#82A3DA"/><stop offset=".83" stop-color="#42C3E5"/><stop offset=".94" stop-color="#00E4F0"/></linearGradient><linearGradient id="t" x1="171.24" x2="200.41" y1="96.1" y2="66.92" gradientUnits="userSpaceOnUse"><stop offset=".16" stop-color="#F30"/><stop offset=".21" stop-color="#EF452D"/><stop offset=".28" stop-color="#DF595F"/><stop offset=".34" stop-color="#D26A88"/><stop offset=".4" stop-color="#C777A8"/><stop offset=".46" stop-color="#C080BF"/><stop offset=".52" stop-color="#BB86CD"/><stop offset=".57" stop-color="#BA88D2"/><stop offset=".61" stop-color="#AA8FD4"/><stop offset=".7" stop-color="#82A3DA"/><stop offset=".83" stop-color="#42C3E5"/><stop offset=".94" stop-color="#00E4F0"/></linearGradient><linearGradient id="u" x1="167.3" x2="197.32" y1="94.79" y2="64.78" gradientUnits="userSpaceOnUse"><stop offset=".16" stop-color="#F30"/><stop offset=".21" stop-color="#EF452D"/><stop offset=".28" stop-color="#DF595F"/><stop offset=".34" stop-color="#D26A88"/><stop offset=".4" stop-color="#C777A8"/><stop offset=".46" stop-color="#C080BF"/><stop offset=".52" stop-color="#BB86CD"/><stop offset=".57" stop-color="#BA88D2"/><stop offset=".61" stop-color="#AA8FD4"/><stop offset=".7" stop-color="#82A3DA"/><stop offset=".83" stop-color="#42C3E5"/><stop offset=".94" stop-color="#00E4F0"/></linearGradient><linearGradient id="v" x1="186.01" x2="212.81" y1="104.68" y2="77.88" gradientUnits="userSpaceOnUse"><stop offset=".16" stop-color="#F30"/><stop offset=".21" stop-color="#EF452D"/><stop offset=".28" stop-color="#DF595F"/><stop offset=".34" stop-color="#D26A88"/><stop offset=".4" stop-color="#C777A8"/><stop offset=".46" stop-color="#C080BF"/><stop offset=".52" stop-color="#BB86CD"/><stop offset=".57" stop-color="#BA88D2"/><stop offset=".61" stop-color="#AA8FD4"/><stop offset=".7" stop-color="#82A3DA"/><stop offset=".83" stop-color="#42C3E5"/><stop offset=".94" stop-color="#00E4F0"/></linearGradient><clipPath id="a"><path fill="#fff" d="M0 0h299.7v370.43H0z"/></clipPath></defs></svg>